<?xml version="1.0" encoding="utf-8"?>
<!-- Generator: Adobe Illustrator 27.0.0, SVG Export Plug-In . SVG Version: 6.00 Build 0)  -->
<svg version="1.1" id="Capa_1" xmlns="http://www.w3.org/2000/svg" xmlns:xlink="http://www.w3.org/1999/xlink" x="0px" y="0px"
	 width="226.772px" height="226.772px" viewBox="0 0 226.772 226.772" enable-background="new 0 0 226.772 226.772"
	 xml:space="preserve">
<path fill="#DD352F" d="M117.001,12.387c58.352,2.368,100.879,51.899,97.272,106.899c-3.691,56.274-51.802,98.736-106.418,95.141
	c-56.218-3.7-97.607-50.729-95.412-104.926C14.746,52.633,62.446,10.474,117.001,12.387z"/>
<path fill="#A01F1F" d="M27.497,114.234c2.066-51.028,44.868-88.858,93.821-87.141c21.762,0.883,41.067,9.082,55.971,21.9
	c-15.435-15.282-36.536-25.246-60.656-26.225c-48.953-1.717-91.754,36.113-93.821,87.141c-1.151,28.412,11.052,54.625,31.454,72.176
	C36.703,164.698,26.438,140.399,27.497,114.234z"/>
<path fill="#FFFFFF" fill-opacity="0.6" d="M175.723,47.479c16.648,17.714,26.007,41.88,24.337,67.354
	c-3.312,50.495-46.482,88.597-95.49,85.371c-22.501-1.481-42.35-10.702-57.266-24.774c15.266,16.235,36.625,27.018,61.123,28.631
	c49.007,3.226,92.178-34.876,95.49-85.371C205.712,91.312,194.763,65.449,175.723,47.479z"/>
</svg>
