<?xml version="1.0" encoding="utf-8"?>
<!-- Generator: Adobe Illustrator 27.0.0, SVG Export Plug-In . SVG Version: 6.00 Build 0)  -->
<svg version="1.1" id="Capa_1" xmlns="http://www.w3.org/2000/svg" xmlns:xlink="http://www.w3.org/1999/xlink" x="0px" y="0px"
	 width="201.1px" height="201.1px" viewBox="0 0 201.1 201.1" enable-background="new 0 0 201.1 201.1" xml:space="preserve">
<g>
	<path fill="#EAB919" d="M100.4,0C155.5-0.1,201,45.1,201.2,100.3c0.2,55-45.1,100.6-100.3,100.8C45.9,201.4,0.3,155.9,0,100.8
		C-0.2,45.8,45.3,0.1,100.4,0z"/>
</g>
<path fill="#BC8600" d="M14.7,101.4c2.1-51,44.9-88.9,93.8-87.1c21.8,0.9,41.1,9.1,56,21.9C149,20.9,127.9,10.9,103.8,9.9
	C54.9,8.2,12.1,46.1,10,97.1c-1.2,28.4,11.1,54.6,31.5,72.2C23.9,151.9,13.6,127.6,14.7,101.4z"/>
<path fill="#FFFFFF" fill-opacity="0.6" d="M162.9,34.7c16.6,17.7,26,41.9,24.3,67.4c-3.3,50.5-46.5,88.6-95.5,85.4
	c-22.5-1.5-42.3-10.7-57.3-24.8c15.3,16.2,36.6,27,61.1,28.6c49,3.2,92.2-34.9,95.5-85.4C192.9,78.5,181.9,52.6,162.9,34.7z"/>
</svg>
