<?xml version="1.0" encoding="utf-8"?>
<!-- Generator: Adobe Illustrator 27.0.0, SVG Export Plug-In . SVG Version: 6.00 Build 0)  -->
<svg version="1.1" id="Capa_1" xmlns="http://www.w3.org/2000/svg" xmlns:xlink="http://www.w3.org/1999/xlink" x="0px" y="0px"
	 width="202.2px" height="202.1px" viewBox="0 0 202.2 202.1" enable-background="new 0 0 202.2 202.1" xml:space="preserve">
<path fill="#DD352F" d="M104.7,0.1C163.1,2.4,205.6,52,202,107c-3.7,56.3-51.8,98.7-106.4,95.1C39.4,198.4-2,151.4,0.2,97.2
	C2.5,40.3,50.2-1.9,104.7,0.1z"/>
<path fill="#A01F1F" d="M15.2,101.9c2.1-51,44.9-88.9,93.8-87.1c21.8,0.9,41.1,9.1,56,21.9c-15.4-15.3-36.5-25.2-60.7-26.2
	c-49-1.7-91.8,36.1-93.8,87.1C9.4,126,21.6,152.2,42,169.8C24.4,152.4,14.2,128.1,15.2,101.9z"/>
<path fill="#FFFFFF" fill-opacity="0.6" d="M163.4,35.2c16.6,17.7,26,41.9,24.3,67.4c-3.3,50.5-46.5,88.6-95.5,85.4
	c-22.5-1.5-42.3-10.7-57.3-24.8c15.3,16.2,36.6,27,61.1,28.6c49,3.2,92.2-34.9,95.5-85.4C193.4,79,182.5,53.1,163.4,35.2z"/>
</svg>
