<?xml version="1.0" encoding="utf-8"?>
<!-- Generator: Adobe Illustrator 27.0.0, SVG Export Plug-In . SVG Version: 6.00 Build 0)  -->
<svg version="1.1" id="Capa_1" xmlns="http://www.w3.org/2000/svg" xmlns:xlink="http://www.w3.org/1999/xlink" x="0px" y="0px"
	 width="226.772px" height="226.772px" viewBox="0 0 226.772 226.772" enable-background="new 0 0 226.772 226.772"
	 xml:space="preserve">
<g>
	<g>
		<path fill="#EAB919" d="M139.922,199.406l81.636-141.398c11.794-20.428-2.949-45.963-26.536-45.963l-163.273,0
			c-23.588,0-38.33,25.535-26.537,45.963l81.636,141.398C98.643,219.834,128.128,219.834,139.922,199.406z"/>
		<path fill="#BC8600" d="M99.908,198.167L18.271,56.769c-4.132-7.155-4.132-15.699,0-22.855
			c4.131-7.155,11.53-11.428,19.793-11.428h163.273c2.821,0,5.537,0.509,8.062,1.45c-3.798-2.73-8.4-4.251-13.314-4.251H32.812
			c-8.263,0-15.662,4.272-19.793,11.428c-4.132,7.155-4.132,15.699,0,22.855l81.637,141.398c2.72,4.712,6.863,8.163,11.732,9.978
			C103.799,203.483,101.582,201.067,99.908,198.167z"/>
		<path opacity="0.71" fill="#FFFFFF" d="M215.877,31.112c-3.513-6.086-9.394-10.074-16.156-11.134
			c5.419,1.66,10.05,5.291,13.004,10.409c4.132,7.155,4.132,15.7,0,22.856L131.09,194.641c-4.132,7.156-11.53,11.428-19.793,11.428
			c-1.235,0-2.448-0.107-3.637-0.293c2.157,0.661,4.436,1.018,6.788,1.018c8.263,0,15.661-4.272,19.793-11.428l81.635-141.398
			C220.008,46.812,220.008,38.268,215.877,31.112z"/>
	</g>
	<path fill="#BC8600" d="M103.244,178.681L40.339,69.726c-3.184-5.514-3.184-12.097,0-17.611c3.183-5.514,8.885-8.806,15.251-8.806
		H181.4c2.174,0,4.267,0.392,6.212,1.117c-2.926-2.104-6.473-3.276-10.259-3.276H51.543c-6.367,0-12.068,3.292-15.251,8.806
		c-3.184,5.514-3.184,12.097,0,17.611l62.905,108.955c2.096,3.631,5.288,6.29,9.04,7.688
		C106.243,182.777,104.534,180.915,103.244,178.681z"/>
	<path opacity="0.71" fill="#FFFFFF" d="M192.604,49.956c-2.707-4.689-7.239-7.762-12.449-8.579
		c4.175,1.279,7.744,4.077,10.02,8.021c3.184,5.514,3.184,12.098,0,17.611l-62.904,108.955c-3.184,5.514-8.885,8.806-15.251,8.806
		c-0.952,0-1.886-0.082-2.802-0.226c1.662,0.509,3.418,0.785,5.231,0.785c6.367,0,12.068-3.292,15.251-8.806l62.904-108.955
		C195.788,62.054,195.788,55.47,192.604,49.956z"/>
</g>
</svg>
