<?xml version="1.0" encoding="utf-8"?>
<!-- Generator: Adobe Illustrator 27.0.0, SVG Export Plug-In . SVG Version: 6.00 Build 0)  -->
<svg version="1.1" id="Capa_1" xmlns="http://www.w3.org/2000/svg" xmlns:xlink="http://www.w3.org/1999/xlink" x="0px" y="0px"
	 width="1220px" height="1112px" viewBox="0 0 1220 1112" style="enable-background:new 0 0 1220 1112;" xml:space="preserve">
<style type="text/css">
	.st0{fill:#071CAD;}
	.st1{fill:#0A1989;}
	.st2{fill:#232AE0;}
	.st3{fill:#FFFFFF;fill-opacity:0.46;}
	.st4{fill:#061D8E;}
	.st5{fill:none;stroke:#232AE0;stroke-width:5;stroke-miterlimit:10;}
	.st6{fill:none;stroke:#232AE0;stroke-width:4.9998;stroke-miterlimit:9.9996;}
	.st7{fill:none;stroke:#232AE0;stroke-width:5.0001;stroke-miterlimit:10.0002;}
	.st8{fill:none;stroke:#232AE0;stroke-width:5.0001;stroke-miterlimit:10.0003;}
	.st9{fill:none;stroke:#232AE0;stroke-width:5;stroke-miterlimit:9.9999;}
	.st10{opacity:0.28;fill:none;stroke:#FFFFFF;stroke-width:3;stroke-miterlimit:10;}
</style>
<path class="st0" d="M1147.2,141h-11.2H610h-1.4H85H73.8c-4.3,0-7.8,3.5-7.8,7.7v862.2c0,44.5,12.9,49.5,29,50.1h1.2h7.8v-27.7v-4.5
	V186.3c0-4.3,3.4-7.7,7.7-7.7h496.9h1.4h499.2c4.3,0,7.7,3.4,7.7,7.7v842.5v4.5v27.7h7.8h1.2c16.1-0.6,29-5.6,29-50.1V148.7
	C1154.9,144.5,1151.4,141,1147.2,141z"/>
<path class="st0" d="M1064.5,1094.4v1.1h-909v-1.1c0-19.3,13.9-54.8,31-54.8h847C1050.6,1039.6,1064.5,1075.2,1064.5,1094.4z"/>
<path class="st1" d="M130,1098.5L130,1098.5c0-4.7,3.8-8.5,8.5-8.5h943c4.7,0,8.5,3.8,8.5,8.5l0,0c0,1.4-1.1,2.5-2.5,2.5h-955
	C131.1,1101,130,1099.9,130,1098.5z"/>
<path class="st2" d="M99.3,171.8V1061h1021.5V171.8H99.3z M175.5,1034.7c-36,0-65.2-29.2-65.2-65.2s29.2-65.2,65.2-65.2
	s65.2,29.2,65.2,65.2S211.5,1034.7,175.5,1034.7z M175.5,890.7c-36,0-65.2-29.2-65.2-65.2s29.2-65.2,65.2-65.2s65.2,29.2,65.2,65.2
	S211.5,890.7,175.5,890.7z M175.5,746.7c-36,0-65.2-29.2-65.2-65.2s29.2-65.2,65.2-65.2s65.2,29.2,65.2,65.2
	S211.5,746.7,175.5,746.7z M175.5,602.7c-36,0-65.2-29.2-65.2-65.2s29.2-65.2,65.2-65.2s65.2,29.2,65.2,65.2
	S211.5,602.7,175.5,602.7z M175.5,458.7c-36,0-65.2-29.2-65.2-65.2s29.2-65.2,65.2-65.2s65.2,29.2,65.2,65.2
	S211.5,458.7,175.5,458.7z M175.5,314.7c-36,0-65.2-29.2-65.2-65.2s29.2-65.2,65.2-65.2s65.2,29.2,65.2,65.2
	S211.5,314.7,175.5,314.7z M319.6,1034.7c-36,0-65.2-29.2-65.2-65.2s29.2-65.2,65.2-65.2c36.1,0,65.2,29.2,65.2,65.2
	S355.6,1034.7,319.6,1034.7z M319.6,890.7c-36,0-65.2-29.2-65.2-65.2s29.2-65.2,65.2-65.2c36.1,0,65.2,29.2,65.2,65.2
	S355.6,890.7,319.6,890.7z M319.6,746.7c-36,0-65.2-29.2-65.2-65.2s29.2-65.2,65.2-65.2c36.1,0,65.2,29.2,65.2,65.2
	S355.6,746.7,319.6,746.7z M319.6,602.7c-36,0-65.2-29.2-65.2-65.2s29.2-65.2,65.2-65.2c36.1,0,65.2,29.2,65.2,65.2
	S355.6,602.7,319.6,602.7z M319.6,458.7c-36,0-65.2-29.2-65.2-65.2s29.2-65.2,65.2-65.2c36.1,0,65.2,29.2,65.2,65.2
	S355.6,458.7,319.6,458.7z M319.6,314.7c-36,0-65.2-29.2-65.2-65.2s29.2-65.2,65.2-65.2c36.1,0,65.2,29.2,65.2,65.2
	S355.6,314.7,319.6,314.7z M463.8,1034.7c-36,0-65.2-29.2-65.2-65.2s29.2-65.2,65.2-65.2s65.2,29.2,65.2,65.2
	S499.8,1034.7,463.8,1034.7z M463.8,890.7c-36,0-65.2-29.2-65.2-65.2s29.2-65.2,65.2-65.2s65.2,29.2,65.2,65.2
	S499.8,890.7,463.8,890.7z M463.8,746.7c-36,0-65.2-29.2-65.2-65.2s29.2-65.2,65.2-65.2s65.2,29.2,65.2,65.2
	S499.8,746.7,463.8,746.7z M463.8,602.7c-36,0-65.2-29.2-65.2-65.2s29.2-65.2,65.2-65.2s65.2,29.2,65.2,65.2
	S499.8,602.7,463.8,602.7z M463.8,458.7c-36,0-65.2-29.2-65.2-65.2s29.2-65.2,65.2-65.2s65.2,29.2,65.2,65.2
	S499.8,458.7,463.8,458.7z M463.8,314.7c-36,0-65.2-29.2-65.2-65.2s29.2-65.2,65.2-65.2s65.2,29.2,65.2,65.2
	S499.8,314.7,463.8,314.7z M608,1034.7c-36,0-65.2-29.2-65.2-65.2s29.2-65.2,65.2-65.2s65.2,29.2,65.2,65.2S644,1034.7,608,1034.7z
	 M608,890.7c-36,0-65.2-29.2-65.2-65.2s29.2-65.2,65.2-65.2s65.2,29.2,65.2,65.2S644,890.7,608,890.7z M608,746.7
	c-36,0-65.2-29.2-65.2-65.2s29.2-65.2,65.2-65.2s65.2,29.2,65.2,65.2S644,746.7,608,746.7z M608,602.7c-36,0-65.2-29.2-65.2-65.2
	s29.2-65.2,65.2-65.2s65.2,29.2,65.2,65.2S644,602.7,608,602.7z M608,458.7c-36,0-65.2-29.2-65.2-65.2s29.2-65.2,65.2-65.2
	s65.2,29.2,65.2,65.2S644,458.7,608,458.7z M608,314.7c-36,0-65.2-29.2-65.2-65.2s29.2-65.2,65.2-65.2s65.2,29.2,65.2,65.2
	S644,314.7,608,314.7z M752.1,1034.7c-36,0-65.2-29.2-65.2-65.2s29.2-65.2,65.2-65.2c36.1,0,65.2,29.2,65.2,65.2
	S788.1,1034.7,752.1,1034.7z M752.1,890.7c-36,0-65.2-29.2-65.2-65.2s29.2-65.2,65.2-65.2c36.1,0,65.2,29.2,65.2,65.2
	S788.1,890.7,752.1,890.7z M752.1,746.7c-36,0-65.2-29.2-65.2-65.2s29.2-65.2,65.2-65.2c36.1,0,65.2,29.2,65.2,65.2
	S788.1,746.7,752.1,746.7z M752.1,602.7c-36,0-65.2-29.2-65.2-65.2s29.2-65.2,65.2-65.2c36.1,0,65.2,29.2,65.2,65.2
	S788.1,602.7,752.1,602.7z M752.1,458.7c-36,0-65.2-29.2-65.2-65.2s29.2-65.2,65.2-65.2c36.1,0,65.2,29.2,65.2,65.2
	S788.1,458.7,752.1,458.7z M752.1,314.7c-36,0-65.2-29.2-65.2-65.2s29.2-65.2,65.2-65.2c36.1,0,65.2,29.2,65.2,65.2
	S788.1,314.7,752.1,314.7z M896.3,1034.7c-36,0-65.2-29.2-65.2-65.2s29.2-65.2,65.2-65.2s65.2,29.2,65.2,65.2
	S932.3,1034.7,896.3,1034.7z M896.3,890.7c-36,0-65.2-29.2-65.2-65.2s29.2-65.2,65.2-65.2s65.2,29.2,65.2,65.2
	S932.3,890.7,896.3,890.7z M896.3,746.7c-36,0-65.2-29.2-65.2-65.2s29.2-65.2,65.2-65.2s65.2,29.2,65.2,65.2
	S932.3,746.7,896.3,746.7z M896.3,602.7c-36,0-65.2-29.2-65.2-65.2s29.2-65.2,65.2-65.2s65.2,29.2,65.2,65.2
	S932.3,602.7,896.3,602.7z M896.3,458.7c-36,0-65.2-29.2-65.2-65.2s29.2-65.2,65.2-65.2s65.2,29.2,65.2,65.2
	S932.3,458.7,896.3,458.7z M896.3,314.7c-36,0-65.2-29.2-65.2-65.2s29.2-65.2,65.2-65.2s65.2,29.2,65.2,65.2
	S932.3,314.7,896.3,314.7z M1040.5,1034.7c-36,0-65.2-29.2-65.2-65.2s29.2-65.2,65.2-65.2s65.2,29.2,65.2,65.2
	S1076.5,1034.7,1040.5,1034.7z M1040.5,890.7c-36,0-65.2-29.2-65.2-65.2s29.2-65.2,65.2-65.2s65.2,29.2,65.2,65.2
	S1076.5,890.7,1040.5,890.7z M1040.5,746.7c-36,0-65.2-29.2-65.2-65.2s29.2-65.2,65.2-65.2s65.2,29.2,65.2,65.2
	S1076.5,746.7,1040.5,746.7z M1040.5,602.7c-36,0-65.2-29.2-65.2-65.2s29.2-65.2,65.2-65.2s65.2,29.2,65.2,65.2
	S1076.5,602.7,1040.5,602.7z M1040.5,458.7c-36,0-65.2-29.2-65.2-65.2s29.2-65.2,65.2-65.2s65.2,29.2,65.2,65.2
	S1076.5,458.7,1040.5,458.7z M1040.5,314.7c-36,0-65.2-29.2-65.2-65.2s29.2-65.2,65.2-65.2s65.2,29.2,65.2,65.2
	S1076.5,314.7,1040.5,314.7z"/>
<g>
	<g>
		<path class="st3" d="M110.3,249.5c0-36,29.2-65.2,65.2-65.2c16.7,0,32,6.3,43.5,16.7c-11.9-13.3-29.3-21.7-48.5-21.7
			c-36,0-65.2,29.2-65.2,65.2c0,19.3,8.4,36.6,21.7,48.5C116.6,281.5,110.3,266.2,110.3,249.5z"/>
		<g>
			<path class="st4" d="M224,206c10.4,11.5,16.7,26.8,16.7,43.5c0,36-29.2,65.2-65.2,65.2c-16.7,0-32-6.3-43.5-16.7
				c11.9,13.3,29.3,21.7,48.5,21.7c36,0,65.2-29.2,65.2-65.2C245.7,235.2,237.3,217.9,224,206z"/>
		</g>
		<g>
			<circle class="st5" cx="175.5" cy="249.5" r="65.2"/>
		</g>
	</g>
	<g>
		<path class="st3" d="M254.5,249.5c0-36,29.2-65.2,65.2-65.2c16.7,0,32,6.3,43.5,16.7c-11.9-13.3-29.3-21.7-48.5-21.7
			c-36,0-65.2,29.2-65.2,65.2c0,19.3,8.4,36.6,21.7,48.5C260.8,281.5,254.5,266.2,254.5,249.5z"/>
		<g>
			<path class="st4" d="M368.2,206c10.4,11.5,16.7,26.8,16.7,43.5c0,36-29.2,65.2-65.2,65.2c-16.7,0-32-6.3-43.5-16.7
				c11.9,13.3,29.3,21.7,48.5,21.7c36,0,65.2-29.2,65.2-65.2C389.9,235.2,381.5,217.9,368.2,206z"/>
		</g>
		<g>
			<circle class="st5" cx="319.7" cy="249.5" r="65.2"/>
		</g>
	</g>
	<g>
		<path class="st3" d="M398.6,249.5c0-36,29.2-65.2,65.2-65.2c16.7,0,32,6.3,43.5,16.7c-11.9-13.3-29.3-21.7-48.5-21.7
			c-36,0-65.2,29.2-65.2,65.2c0,19.3,8.4,36.6,21.7,48.5C404.9,281.5,398.6,266.2,398.6,249.5z"/>
		<g>
			<path class="st4" d="M512.4,206c10.4,11.5,16.7,26.8,16.7,43.5c0,36-29.2,65.2-65.2,65.2c-16.7,0-32-6.3-43.5-16.7
				c11.9,13.3,29.3,21.7,48.5,21.7c36,0,65.2-29.2,65.2-65.2C534,235.2,525.7,217.9,512.4,206z"/>
		</g>
		<g>
			<circle class="st5" cx="463.8" cy="249.5" r="65.2"/>
		</g>
	</g>
	<g>
		<path class="st3" d="M542.8,249.5c0-36,29.2-65.2,65.2-65.2c16.7,0,32,6.3,43.5,16.7c-11.9-13.3-29.3-21.7-48.5-21.7
			c-36,0-65.2,29.2-65.2,65.2c0,19.3,8.4,36.6,21.7,48.5C549.1,281.5,542.8,266.2,542.8,249.5z"/>
		<g>
			<path class="st4" d="M656.5,206c10.4,11.5,16.7,26.8,16.7,43.5c0,36-29.2,65.2-65.2,65.2c-16.7,0-32-6.3-43.5-16.7
				c11.9,13.3,29.3,21.7,48.5,21.7c36,0,65.2-29.2,65.2-65.2C678.2,235.2,669.8,217.9,656.5,206z"/>
		</g>
		<g>
			<circle class="st5" cx="608" cy="249.5" r="65.2"/>
		</g>
	</g>
	<g>
		<path class="st3" d="M687,249.5c0-36,29.2-65.2,65.2-65.2c16.7,0,32,6.3,43.5,16.7c-11.9-13.3-29.3-21.7-48.5-21.7
			c-36,0-65.2,29.2-65.2,65.2c0,19.3,8.4,36.6,21.7,48.5C693.3,281.5,687,266.2,687,249.5z"/>
		<g>
			<path class="st4" d="M800.7,206c10.4,11.5,16.7,26.8,16.7,43.5c0,36-29.2,65.2-65.2,65.2c-16.7,0-32-6.3-43.5-16.7
				c11.9,13.3,29.3,21.7,48.5,21.7c36,0,65.2-29.2,65.2-65.2C822.4,235.2,814,217.9,800.7,206z"/>
		</g>
		<g>
			<circle class="st5" cx="752.2" cy="249.5" r="65.2"/>
		</g>
	</g>
	<g>
		<path class="st3" d="M831.1,249.5c0-36,29.2-65.2,65.2-65.2c16.7,0,32,6.3,43.5,16.7c-11.9-13.3-29.3-21.7-48.5-21.7
			c-36,0-65.2,29.2-65.2,65.2c0,19.3,8.4,36.6,21.7,48.5C837.4,281.5,831.1,266.2,831.1,249.5z"/>
		<g>
			<path class="st4" d="M944.9,206c10.4,11.5,16.7,26.8,16.7,43.5c0,36-29.2,65.2-65.2,65.2c-16.7,0-32-6.3-43.5-16.7
				c11.9,13.3,29.3,21.7,48.5,21.7c36,0,65.2-29.2,65.2-65.2C966.5,235.2,958.2,217.9,944.9,206z"/>
		</g>
		<g>
			<circle class="st5" cx="896.3" cy="249.5" r="65.2"/>
		</g>
	</g>
	<g>
		<path class="st3" d="M975.3,249.5c0-36,29.2-65.2,65.2-65.2c16.7,0,32,6.3,43.5,16.7c-11.9-13.3-29.3-21.7-48.5-21.7
			c-36,0-65.2,29.2-65.2,65.2c0,19.3,8.4,36.6,21.7,48.5C981.6,281.5,975.3,266.2,975.3,249.5z"/>
		<g>
			<path class="st4" d="M1089,206c10.4,11.5,16.7,26.8,16.7,43.5c0,36-29.2,65.2-65.2,65.2c-16.7,0-32-6.3-43.5-16.7
				c11.9,13.3,29.3,21.7,48.5,21.7c36,0,65.2-29.2,65.2-65.2C1110.7,235.2,1102.3,217.9,1089,206z"/>
		</g>
		<g>
			
				<ellipse transform="matrix(0.1735 -0.9848 0.9848 0.1735 614.1715 1230.8317)" class="st6" cx="1040.4" cy="249.5" rx="65.2" ry="65.2"/>
		</g>
	</g>
</g>
<g>
	<g>
		<path class="st3" d="M110.3,393.5c0-36,29.2-65.2,65.2-65.2c16.7,0,32,6.3,43.5,16.7c-11.9-13.3-29.3-21.7-48.5-21.7
			c-36,0-65.2,29.2-65.2,65.2c0,19.3,8.4,36.6,21.7,48.5C116.6,425.5,110.3,410.2,110.3,393.5z"/>
		<g>
			<path class="st4" d="M224,350c10.4,11.5,16.7,26.8,16.7,43.5c0,36-29.2,65.2-65.2,65.2c-16.7,0-32-6.3-43.5-16.7
				c11.9,13.3,29.3,21.7,48.5,21.7c36,0,65.2-29.2,65.2-65.2C245.7,379.2,237.3,361.9,224,350z"/>
		</g>
		<g>
			<circle class="st5" cx="175.5" cy="393.5" r="65.2"/>
		</g>
	</g>
	<g>
		<path class="st3" d="M254.5,393.5c0-36,29.2-65.2,65.2-65.2c16.7,0,32,6.3,43.5,16.7c-11.9-13.3-29.3-21.7-48.5-21.7
			c-36,0-65.2,29.2-65.2,65.2c0,19.3,8.4,36.6,21.7,48.5C260.8,425.5,254.5,410.2,254.5,393.5z"/>
		<g>
			<path class="st4" d="M368.2,350c10.4,11.5,16.7,26.8,16.7,43.5c0,36-29.2,65.2-65.2,65.2c-16.7,0-32-6.3-43.5-16.7
				c11.9,13.3,29.3,21.7,48.5,21.7c36,0,65.2-29.2,65.2-65.2C389.9,379.2,381.5,361.9,368.2,350z"/>
		</g>
		<g>
			<circle class="st5" cx="319.7" cy="393.5" r="65.2"/>
		</g>
	</g>
	<g>
		<path class="st3" d="M398.6,393.5c0-36,29.2-65.2,65.2-65.2c16.7,0,32,6.3,43.5,16.7c-11.9-13.3-29.3-21.7-48.5-21.7
			c-36,0-65.2,29.2-65.2,65.2c0,19.3,8.4,36.6,21.7,48.5C404.9,425.5,398.6,410.2,398.6,393.5z"/>
		<g>
			<path class="st4" d="M512.4,350c10.4,11.5,16.7,26.8,16.7,43.5c0,36-29.2,65.2-65.2,65.2c-16.7,0-32-6.3-43.5-16.7
				c11.9,13.3,29.3,21.7,48.5,21.7c36,0,65.2-29.2,65.2-65.2C534,379.2,525.7,361.9,512.4,350z"/>
		</g>
		<g>
			<circle class="st5" cx="463.8" cy="393.5" r="65.2"/>
		</g>
	</g>
	<g>
		<path class="st3" d="M542.8,393.5c0-36,29.2-65.2,65.2-65.2c16.7,0,32,6.3,43.5,16.7c-11.9-13.3-29.3-21.7-48.5-21.7
			c-36,0-65.2,29.2-65.2,65.2c0,19.3,8.4,36.6,21.7,48.5C549.1,425.5,542.8,410.2,542.8,393.5z"/>
		<g>
			<path class="st4" d="M656.5,350c10.4,11.5,16.7,26.8,16.7,43.5c0,36-29.2,65.2-65.2,65.2c-16.7,0-32-6.3-43.5-16.7
				c11.9,13.3,29.3,21.7,48.5,21.7c36,0,65.2-29.2,65.2-65.2C678.2,379.2,669.8,361.9,656.5,350z"/>
		</g>
		<g>
			<circle class="st5" cx="608" cy="393.5" r="65.2"/>
		</g>
	</g>
	<g>
		<path class="st3" d="M687,393.5c0-36,29.2-65.2,65.2-65.2c16.7,0,32,6.3,43.5,16.7c-11.9-13.3-29.3-21.7-48.5-21.7
			c-36,0-65.2,29.2-65.2,65.2c0,19.3,8.4,36.6,21.7,48.5C693.3,425.5,687,410.2,687,393.5z"/>
		<g>
			<path class="st4" d="M800.7,350c10.4,11.5,16.7,26.8,16.7,43.5c0,36-29.2,65.2-65.2,65.2c-16.7,0-32-6.3-43.5-16.7
				c11.9,13.3,29.3,21.7,48.5,21.7c36,0,65.2-29.2,65.2-65.2C822.4,379.2,814,361.9,800.7,350z"/>
		</g>
		<g>
			<circle class="st5" cx="752.2" cy="393.5" r="65.2"/>
		</g>
	</g>
	<g>
		<path class="st3" d="M831.1,393.5c0-36,29.2-65.2,65.2-65.2c16.7,0,32,6.3,43.5,16.7c-11.9-13.3-29.3-21.7-48.5-21.7
			c-36,0-65.2,29.2-65.2,65.2c0,19.3,8.4,36.6,21.7,48.5C837.4,425.5,831.1,410.2,831.1,393.5z"/>
		<g>
			<path class="st4" d="M944.9,350c10.4,11.5,16.7,26.8,16.7,43.5c0,36-29.2,65.2-65.2,65.2c-16.7,0-32-6.3-43.5-16.7
				c11.9,13.3,29.3,21.7,48.5,21.7c36,0,65.2-29.2,65.2-65.2C966.5,379.2,958.2,361.9,944.9,350z"/>
		</g>
		<g>
			<circle class="st5" cx="896.3" cy="393.5" r="65.2"/>
		</g>
	</g>
	<g>
		<path class="st3" d="M975.3,393.5c0-36,29.2-65.2,65.2-65.2c16.7,0,32,6.3,43.5,16.7c-11.9-13.3-29.3-21.7-48.5-21.7
			c-36,0-65.2,29.2-65.2,65.2c0,19.3,8.4,36.6,21.7,48.5C981.6,425.5,975.3,410.2,975.3,393.5z"/>
		<g>
			<path class="st4" d="M1089,350c10.4,11.5,16.7,26.8,16.7,43.5c0,36-29.2,65.2-65.2,65.2c-16.7,0-32-6.3-43.5-16.7
				c11.9,13.3,29.3,21.7,48.5,21.7c36,0,65.2-29.2,65.2-65.2C1110.7,379.2,1102.3,361.9,1089,350z"/>
		</g>
		<g>
			
				<ellipse transform="matrix(0.7071 -0.7071 0.7071 0.7071 26.5267 851.0059)" class="st7" cx="1040.5" cy="393.5" rx="65.2" ry="65.2"/>
		</g>
	</g>
</g>
<g>
	<g>
		<path class="st3" d="M110.3,537.5c0-36,29.2-65.2,65.2-65.2c16.7,0,32,6.3,43.5,16.7c-11.9-13.3-29.3-21.7-48.5-21.7
			c-36,0-65.2,29.2-65.2,65.2c0,19.3,8.4,36.6,21.7,48.5C116.6,569.5,110.3,554.2,110.3,537.5z"/>
		<g>
			<path class="st4" d="M224,494c10.4,11.5,16.7,26.8,16.7,43.5c0,36-29.2,65.2-65.2,65.2c-16.7,0-32-6.3-43.5-16.7
				c11.9,13.3,29.3,21.7,48.5,21.7c36,0,65.2-29.2,65.2-65.2C245.7,523.2,237.3,505.9,224,494z"/>
		</g>
		<g>
			<circle class="st5" cx="175.5" cy="537.5" r="65.2"/>
		</g>
	</g>
	<g>
		<path class="st3" d="M254.5,537.5c0-36,29.2-65.2,65.2-65.2c16.7,0,32,6.3,43.5,16.7c-11.9-13.3-29.3-21.7-48.5-21.7
			c-36,0-65.2,29.2-65.2,65.2c0,19.3,8.4,36.6,21.7,48.5C260.8,569.5,254.5,554.2,254.5,537.5z"/>
		<g>
			<path class="st4" d="M368.2,494c10.4,11.5,16.7,26.8,16.7,43.5c0,36-29.2,65.2-65.2,65.2c-16.7,0-32-6.3-43.5-16.7
				c11.9,13.3,29.3,21.7,48.5,21.7c36,0,65.2-29.2,65.2-65.2C389.9,523.2,381.5,505.9,368.2,494z"/>
		</g>
		<g>
			<circle class="st5" cx="319.7" cy="537.5" r="65.2"/>
		</g>
	</g>
	<g>
		<path class="st3" d="M398.6,537.5c0-36,29.2-65.2,65.2-65.2c16.7,0,32,6.3,43.5,16.7c-11.9-13.3-29.3-21.7-48.5-21.7
			c-36,0-65.2,29.2-65.2,65.2c0,19.3,8.4,36.6,21.7,48.5C404.9,569.5,398.6,554.2,398.6,537.5z"/>
		<g>
			<path class="st4" d="M512.4,494c10.4,11.5,16.7,26.8,16.7,43.5c0,36-29.2,65.2-65.2,65.2c-16.7,0-32-6.3-43.5-16.7
				c11.9,13.3,29.3,21.7,48.5,21.7c36,0,65.2-29.2,65.2-65.2C534,523.2,525.7,505.9,512.4,494z"/>
		</g>
		<g>
			<circle class="st5" cx="463.8" cy="537.5" r="65.2"/>
		</g>
	</g>
	<g>
		<path class="st3" d="M542.8,537.5c0-36,29.2-65.2,65.2-65.2c16.7,0,32,6.3,43.5,16.7c-11.9-13.3-29.3-21.7-48.5-21.7
			c-36,0-65.2,29.2-65.2,65.2c0,19.3,8.4,36.6,21.7,48.5C549.1,569.5,542.8,554.2,542.8,537.5z"/>
		<g>
			<path class="st4" d="M656.5,494c10.4,11.5,16.7,26.8,16.7,43.5c0,36-29.2,65.2-65.2,65.2c-16.7,0-32-6.3-43.5-16.7
				c11.9,13.3,29.3,21.7,48.5,21.7c36,0,65.2-29.2,65.2-65.2C678.2,523.2,669.8,505.9,656.5,494z"/>
		</g>
		<g>
			<circle class="st5" cx="608" cy="537.5" r="65.2"/>
		</g>
	</g>
	<g>
		<path class="st3" d="M687,537.5c0-36,29.2-65.2,65.2-65.2c16.7,0,32,6.3,43.5,16.7c-11.9-13.3-29.3-21.7-48.5-21.7
			c-36,0-65.2,29.2-65.2,65.2c0,19.3,8.4,36.6,21.7,48.5C693.3,569.5,687,554.2,687,537.5z"/>
		<g>
			<path class="st4" d="M800.7,494c10.4,11.5,16.7,26.8,16.7,43.5c0,36-29.2,65.2-65.2,65.2c-16.7,0-32-6.3-43.5-16.7
				c11.9,13.3,29.3,21.7,48.5,21.7c36,0,65.2-29.2,65.2-65.2C822.4,523.2,814,505.9,800.7,494z"/>
		</g>
		<g>
			<circle class="st5" cx="752.2" cy="537.5" r="65.2"/>
		</g>
	</g>
	<g>
		<path class="st3" d="M831.1,537.5c0-36,29.2-65.2,65.2-65.2c16.7,0,32,6.3,43.5,16.7c-11.9-13.3-29.3-21.7-48.5-21.7
			c-36,0-65.2,29.2-65.2,65.2c0,19.3,8.4,36.6,21.7,48.5C837.4,569.5,831.1,554.2,831.1,537.5z"/>
		<g>
			<path class="st4" d="M944.9,494c10.4,11.5,16.7,26.8,16.7,43.5c0,36-29.2,65.2-65.2,65.2c-16.7,0-32-6.3-43.5-16.7
				c11.9,13.3,29.3,21.7,48.5,21.7c36,0,65.2-29.2,65.2-65.2C966.5,523.2,958.2,505.9,944.9,494z"/>
		</g>
		<g>
			<circle class="st5" cx="896.3" cy="537.5" r="65.2"/>
		</g>
	</g>
	<g>
		<path class="st3" d="M975.3,537.5c0-36,29.2-65.2,65.2-65.2c16.7,0,32,6.3,43.5,16.7c-11.9-13.3-29.3-21.7-48.5-21.7
			c-36,0-65.2,29.2-65.2,65.2c0,19.3,8.4,36.6,21.7,48.5C981.6,569.5,975.3,554.2,975.3,537.5z"/>
		<g>
			<path class="st4" d="M1089,494c10.4,11.5,16.7,26.8,16.7,43.5c0,36-29.2,65.2-65.2,65.2c-16.7,0-32-6.3-43.5-16.7
				c11.9,13.3,29.3,21.7,48.5,21.7c36,0,65.2-29.2,65.2-65.2C1110.7,523.2,1102.3,505.9,1089,494z"/>
		</g>
		<g>
			
				<ellipse transform="matrix(0.7071 -0.7071 0.7071 0.7071 -75.2971 893.1853)" class="st7" cx="1040.5" cy="537.5" rx="65.2" ry="65.2"/>
		</g>
	</g>
</g>
<g>
	<g>
		<path class="st3" d="M110.3,681.5c0-36,29.2-65.2,65.2-65.2c16.7,0,32,6.3,43.5,16.7c-11.9-13.3-29.3-21.7-48.5-21.7
			c-36,0-65.2,29.2-65.2,65.2c0,19.3,8.4,36.6,21.7,48.5C116.6,713.5,110.3,698.2,110.3,681.5z"/>
		<g>
			<path class="st4" d="M224,638c10.4,11.5,16.7,26.8,16.7,43.5c0,36-29.2,65.2-65.2,65.2c-16.7,0-32-6.3-43.5-16.7
				c11.9,13.3,29.3,21.7,48.5,21.7c36,0,65.2-29.2,65.2-65.2C245.7,667.2,237.3,649.9,224,638z"/>
		</g>
		<g>
			<circle class="st5" cx="175.5" cy="681.5" r="65.2"/>
		</g>
	</g>
	<g>
		<path class="st3" d="M254.5,681.5c0-36,29.2-65.2,65.2-65.2c16.7,0,32,6.3,43.5,16.7c-11.9-13.3-29.3-21.7-48.5-21.7
			c-36,0-65.2,29.2-65.2,65.2c0,19.3,8.4,36.6,21.7,48.5C260.8,713.5,254.5,698.2,254.5,681.5z"/>
		<g>
			<path class="st4" d="M368.2,638c10.4,11.5,16.7,26.8,16.7,43.5c0,36-29.2,65.2-65.2,65.2c-16.7,0-32-6.3-43.5-16.7
				c11.9,13.3,29.3,21.7,48.5,21.7c36,0,65.2-29.2,65.2-65.2C389.9,667.2,381.5,649.9,368.2,638z"/>
		</g>
		<g>
			<circle class="st5" cx="319.7" cy="681.5" r="65.2"/>
		</g>
	</g>
	<g>
		<path class="st3" d="M398.6,681.5c0-36,29.2-65.2,65.2-65.2c16.7,0,32,6.3,43.5,16.7c-11.9-13.3-29.3-21.7-48.5-21.7
			c-36,0-65.2,29.2-65.2,65.2c0,19.3,8.4,36.6,21.7,48.5C404.9,713.5,398.6,698.2,398.6,681.5z"/>
		<g>
			<path class="st4" d="M512.4,638c10.4,11.5,16.7,26.8,16.7,43.5c0,36-29.2,65.2-65.2,65.2c-16.7,0-32-6.3-43.5-16.7
				c11.9,13.3,29.3,21.7,48.5,21.7c36,0,65.2-29.2,65.2-65.2C534,667.2,525.7,649.9,512.4,638z"/>
		</g>
		<g>
			<circle class="st5" cx="463.8" cy="681.5" r="65.2"/>
		</g>
	</g>
	<g>
		<path class="st3" d="M542.8,681.5c0-36,29.2-65.2,65.2-65.2c16.7,0,32,6.3,43.5,16.7c-11.9-13.3-29.3-21.7-48.5-21.7
			c-36,0-65.2,29.2-65.2,65.2c0,19.3,8.4,36.6,21.7,48.5C549.1,713.5,542.8,698.2,542.8,681.5z"/>
		<g>
			<path class="st4" d="M656.5,638c10.4,11.5,16.7,26.8,16.7,43.5c0,36-29.2,65.2-65.2,65.2c-16.7,0-32-6.3-43.5-16.7
				c11.9,13.3,29.3,21.7,48.5,21.7c36,0,65.2-29.2,65.2-65.2C678.2,667.2,669.8,649.9,656.5,638z"/>
		</g>
		<g>
			<circle class="st5" cx="608" cy="681.5" r="65.2"/>
		</g>
	</g>
	<g>
		<path class="st3" d="M687,681.5c0-36,29.2-65.2,65.2-65.2c16.7,0,32,6.3,43.5,16.7c-11.9-13.3-29.3-21.7-48.5-21.7
			c-36,0-65.2,29.2-65.2,65.2c0,19.3,8.4,36.6,21.7,48.5C693.3,713.5,687,698.2,687,681.5z"/>
		<g>
			<path class="st4" d="M800.7,638c10.4,11.5,16.7,26.8,16.7,43.5c0,36-29.2,65.2-65.2,65.2c-16.7,0-32-6.3-43.5-16.7
				c11.9,13.3,29.3,21.7,48.5,21.7c36,0,65.2-29.2,65.2-65.2C822.4,667.2,814,649.9,800.7,638z"/>
		</g>
		<g>
			<circle class="st5" cx="752.2" cy="681.5" r="65.2"/>
		</g>
	</g>
	<g>
		<path class="st3" d="M831.1,681.5c0-36,29.2-65.2,65.2-65.2c16.7,0,32,6.3,43.5,16.7c-11.9-13.3-29.3-21.7-48.5-21.7
			c-36,0-65.2,29.2-65.2,65.2c0,19.3,8.4,36.6,21.7,48.5C837.4,713.5,831.1,698.2,831.1,681.5z"/>
		<g>
			<path class="st4" d="M944.9,638c10.4,11.5,16.7,26.8,16.7,43.5c0,36-29.2,65.2-65.2,65.2c-16.7,0-32-6.3-43.5-16.7
				c11.9,13.3,29.3,21.7,48.5,21.7c36,0,65.2-29.2,65.2-65.2C966.5,667.2,958.2,649.9,944.9,638z"/>
		</g>
		<g>
			<circle class="st5" cx="896.3" cy="681.5" r="65.2"/>
		</g>
	</g>
	<g>
		<path class="st3" d="M975.3,681.5c0-36,29.2-65.2,65.2-65.2c16.7,0,32,6.3,43.5,16.7c-11.9-13.3-29.3-21.7-48.5-21.7
			c-36,0-65.2,29.2-65.2,65.2c0,19.3,8.4,36.6,21.7,48.5C981.6,713.5,975.3,698.2,975.3,681.5z"/>
		<g>
			<path class="st4" d="M1089,638c10.4,11.5,16.7,26.8,16.7,43.5c0,36-29.2,65.2-65.2,65.2c-16.7,0-32-6.3-43.5-16.7
				c11.9,13.3,29.3,21.7,48.5,21.7c36,0,65.2-29.2,65.2-65.2C1110.7,667.2,1102.3,649.9,1089,638z"/>
		</g>
		<g>
			
				<ellipse transform="matrix(0.7071 -0.7071 0.7071 0.7071 -177.091 935.2938)" class="st7" cx="1040.5" cy="681.4" rx="65.2" ry="65.2"/>
		</g>
	</g>
</g>
<g>
	<g>
		<path class="st3" d="M110.3,825.5c0-36,29.2-65.2,65.2-65.2c16.7,0,32,6.3,43.5,16.7c-11.9-13.3-29.3-21.7-48.5-21.7
			c-36,0-65.2,29.2-65.2,65.2c0,19.3,8.4,36.6,21.7,48.5C116.6,857.5,110.3,842.2,110.3,825.5z"/>
		<g>
			<path class="st4" d="M224,782c10.4,11.5,16.7,26.8,16.7,43.5c0,36-29.2,65.2-65.2,65.2c-16.7,0-32-6.3-43.5-16.7
				c11.9,13.3,29.3,21.7,48.5,21.7c36,0,65.2-29.2,65.2-65.2C245.7,811.2,237.3,793.9,224,782z"/>
		</g>
		<g>
			<circle class="st5" cx="175.5" cy="825.5" r="65.2"/>
		</g>
	</g>
	<g>
		<path class="st3" d="M254.5,825.5c0-36,29.2-65.2,65.2-65.2c16.7,0,32,6.3,43.5,16.7c-11.9-13.3-29.3-21.7-48.5-21.7
			c-36,0-65.2,29.2-65.2,65.2c0,19.3,8.4,36.6,21.7,48.5C260.8,857.5,254.5,842.2,254.5,825.5z"/>
		<g>
			<path class="st4" d="M368.2,782c10.4,11.5,16.7,26.8,16.7,43.5c0,36-29.2,65.2-65.2,65.2c-16.7,0-32-6.3-43.5-16.7
				c11.9,13.3,29.3,21.7,48.5,21.7c36,0,65.2-29.2,65.2-65.2C389.9,811.2,381.5,793.9,368.2,782z"/>
		</g>
		<g>
			<circle class="st5" cx="319.7" cy="825.5" r="65.2"/>
		</g>
	</g>
	<g>
		<path class="st3" d="M398.6,825.5c0-36,29.2-65.2,65.2-65.2c16.7,0,32,6.3,43.5,16.7c-11.9-13.3-29.3-21.7-48.5-21.7
			c-36,0-65.2,29.2-65.2,65.2c0,19.3,8.4,36.6,21.7,48.5C404.9,857.5,398.6,842.2,398.6,825.5z"/>
		<g>
			<path class="st4" d="M512.4,782c10.4,11.5,16.7,26.8,16.7,43.5c0,36-29.2,65.2-65.2,65.2c-16.7,0-32-6.3-43.5-16.7
				c11.9,13.3,29.3,21.7,48.5,21.7c36,0,65.2-29.2,65.2-65.2C534,811.2,525.7,793.9,512.4,782z"/>
		</g>
		<g>
			<circle class="st5" cx="463.8" cy="825.5" r="65.2"/>
		</g>
	</g>
	<g>
		<path class="st3" d="M542.8,825.5c0-36,29.2-65.2,65.2-65.2c16.7,0,32,6.3,43.5,16.7c-11.9-13.3-29.3-21.7-48.5-21.7
			c-36,0-65.2,29.2-65.2,65.2c0,19.3,8.4,36.6,21.7,48.5C549.1,857.5,542.8,842.2,542.8,825.5z"/>
		<g>
			<path class="st4" d="M656.5,782c10.4,11.5,16.7,26.8,16.7,43.5c0,36-29.2,65.2-65.2,65.2c-16.7,0-32-6.3-43.5-16.7
				c11.9,13.3,29.3,21.7,48.5,21.7c36,0,65.2-29.2,65.2-65.2C678.2,811.2,669.8,793.9,656.5,782z"/>
		</g>
		<g>
			<circle class="st5" cx="608" cy="825.5" r="65.2"/>
		</g>
	</g>
	<g>
		<path class="st3" d="M687,825.5c0-36,29.2-65.2,65.2-65.2c16.7,0,32,6.3,43.5,16.7c-11.9-13.3-29.3-21.7-48.5-21.7
			c-36,0-65.2,29.2-65.2,65.2c0,19.3,8.4,36.6,21.7,48.5C693.3,857.5,687,842.2,687,825.5z"/>
		<g>
			<path class="st4" d="M800.7,782c10.4,11.5,16.7,26.8,16.7,43.5c0,36-29.2,65.2-65.2,65.2c-16.7,0-32-6.3-43.5-16.7
				c11.9,13.3,29.3,21.7,48.5,21.7c36,0,65.2-29.2,65.2-65.2C822.4,811.2,814,793.9,800.7,782z"/>
		</g>
		<g>
			<circle class="st5" cx="752.2" cy="825.5" r="65.2"/>
		</g>
	</g>
	<g>
		<path class="st3" d="M831.1,825.5c0-36,29.2-65.2,65.2-65.2c16.7,0,32,6.3,43.5,16.7c-11.9-13.3-29.3-21.7-48.5-21.7
			c-36,0-65.2,29.2-65.2,65.2c0,19.3,8.4,36.6,21.7,48.5C837.4,857.5,831.1,842.2,831.1,825.5z"/>
		<g>
			<path class="st4" d="M944.9,782c10.4,11.5,16.7,26.8,16.7,43.5c0,36-29.2,65.2-65.2,65.2c-16.7,0-32-6.3-43.5-16.7
				c11.9,13.3,29.3,21.7,48.5,21.7c36,0,65.2-29.2,65.2-65.2C966.5,811.2,958.2,793.9,944.9,782z"/>
		</g>
		<g>
			<circle class="st5" cx="896.3" cy="825.5" r="65.2"/>
		</g>
	</g>
	<g>
		<path class="st3" d="M975.3,825.5c0-36,29.2-65.2,65.2-65.2c16.7,0,32,6.3,43.5,16.7c-11.9-13.3-29.3-21.7-48.5-21.7
			c-36,0-65.2,29.2-65.2,65.2c0,19.3,8.4,36.6,21.7,48.5C981.6,857.5,975.3,842.2,975.3,825.5z"/>
		<g>
			<path class="st4" d="M1089,782c10.4,11.5,16.7,26.8,16.7,43.5c0,36-29.2,65.2-65.2,65.2c-16.7,0-32-6.3-43.5-16.7
				c11.9,13.3,29.3,21.7,48.5,21.7c36,0,65.2-29.2,65.2-65.2C1110.7,811.2,1102.3,793.9,1089,782z"/>
		</g>
		<g>
			
				<ellipse transform="matrix(0.7071 -0.7071 0.7071 0.7071 -278.9146 977.4732)" class="st7" cx="1040.5" cy="825.4" rx="65.2" ry="65.2"/>
		</g>
	</g>
</g>
<g>
	<g>
		<path class="st3" d="M110.3,969.5c0-36,29.2-65.2,65.2-65.2c16.7,0,32,6.3,43.5,16.7c-11.9-13.3-29.3-21.7-48.5-21.7
			c-36,0-65.2,29.2-65.2,65.2c0,19.3,8.4,36.6,21.7,48.5C116.6,1001.5,110.3,986.2,110.3,969.5z"/>
		<g>
			<path class="st4" d="M224,926c10.4,11.5,16.7,26.8,16.7,43.5c0,36-29.2,65.2-65.2,65.2c-16.7,0-32-6.3-43.5-16.7
				c11.9,13.3,29.3,21.7,48.5,21.7c36,0,65.2-29.2,65.2-65.2C245.7,955.2,237.3,937.9,224,926z"/>
		</g>
		<g>
			<circle class="st5" cx="175.5" cy="969.5" r="65.2"/>
		</g>
	</g>
	<g>
		<path class="st3" d="M254.5,969.5c0-36,29.2-65.2,65.2-65.2c16.7,0,32,6.3,43.5,16.7c-11.9-13.3-29.3-21.7-48.5-21.7
			c-36,0-65.2,29.2-65.2,65.2c0,19.3,8.4,36.6,21.7,48.5C260.8,1001.5,254.5,986.2,254.5,969.5z"/>
		<g>
			<path class="st4" d="M368.2,926c10.4,11.5,16.7,26.8,16.7,43.5c0,36-29.2,65.2-65.2,65.2c-16.7,0-32-6.3-43.5-16.7
				c11.9,13.3,29.3,21.7,48.5,21.7c36,0,65.2-29.2,65.2-65.2C389.9,955.2,381.5,937.9,368.2,926z"/>
		</g>
		<g>
			
				<ellipse transform="matrix(4.531439e-02 -0.999 0.999 4.531439e-02 -663.2911 1244.9393)" class="st8" cx="319.7" cy="969.5" rx="65.2" ry="65.2"/>
		</g>
	</g>
	<g>
		<path class="st3" d="M398.6,969.5c0-36,29.2-65.2,65.2-65.2c16.7,0,32,6.3,43.5,16.7c-11.9-13.3-29.3-21.7-48.5-21.7
			c-36,0-65.2,29.2-65.2,65.2c0,19.3,8.4,36.6,21.7,48.5C404.9,1001.5,398.6,986.2,398.6,969.5z"/>
		<g>
			<path class="st4" d="M512.4,926c10.4,11.5,16.7,26.8,16.7,43.5c0,36-29.2,65.2-65.2,65.2c-16.7,0-32-6.3-43.5-16.7
				c11.9,13.3,29.3,21.7,48.5,21.7c36,0,65.2-29.2,65.2-65.2C534,955.2,525.7,937.9,512.4,926z"/>
		</g>
		<g>
			<circle class="st5" cx="463.8" cy="969.5" r="65.2"/>
		</g>
	</g>
	<g>
		<path class="st3" d="M542.8,969.5c0-36,29.2-65.2,65.2-65.2c16.7,0,32,6.3,43.5,16.7c-11.9-13.3-29.3-21.7-48.5-21.7
			c-36,0-65.2,29.2-65.2,65.2c0,19.3,8.4,36.6,21.7,48.5C549.1,1001.5,542.8,986.2,542.8,969.5z"/>
		<g>
			<path class="st4" d="M656.5,926c10.4,11.5,16.7,26.8,16.7,43.5c0,36-29.2,65.2-65.2,65.2c-16.7,0-32-6.3-43.5-16.7
				c11.9,13.3,29.3,21.7,48.5,21.7c36,0,65.2-29.2,65.2-65.2C678.2,955.2,669.8,937.9,656.5,926z"/>
		</g>
		<g>
			<circle class="st5" cx="608" cy="969.5" r="65.2"/>
		</g>
	</g>
	<g>
		<path class="st3" d="M687,969.5c0-36,29.2-65.2,65.2-65.2c16.7,0,32,6.3,43.5,16.7c-11.9-13.3-29.3-21.7-48.5-21.7
			c-36,0-65.2,29.2-65.2,65.2c0,19.3,8.4,36.6,21.7,48.5C693.3,1001.5,687,986.2,687,969.5z"/>
		<g>
			<path class="st4" d="M800.7,926c10.4,11.5,16.7,26.8,16.7,43.5c0,36-29.2,65.2-65.2,65.2c-16.7,0-32-6.3-43.5-16.7
				c11.9,13.3,29.3,21.7,48.5,21.7c36,0,65.2-29.2,65.2-65.2C822.4,955.2,814,937.9,800.7,926z"/>
		</g>
		<g>
			<circle class="st5" cx="752.2" cy="969.5" r="65.2"/>
		</g>
	</g>
	<g>
		<path class="st3" d="M831.1,969.5c0-36,29.2-65.2,65.2-65.2c16.7,0,32,6.3,43.5,16.7c-11.9-13.3-29.3-21.7-48.5-21.7
			c-36,0-65.2,29.2-65.2,65.2c0,19.3,8.4,36.6,21.7,48.5C837.4,1001.5,831.1,986.2,831.1,969.5z"/>
		<g>
			<path class="st4" d="M944.9,926c10.4,11.5,16.7,26.8,16.7,43.5c0,36-29.2,65.2-65.2,65.2c-16.7,0-32-6.3-43.5-16.7
				c11.9,13.3,29.3,21.7,48.5,21.7c36,0,65.2-29.2,65.2-65.2C966.5,955.2,958.2,937.9,944.9,926z"/>
		</g>
		<g>
			<circle class="st5" cx="896.3" cy="969.5" r="65.2"/>
		</g>
	</g>
	<g>
		<path class="st3" d="M975.3,969.5c0-36,29.2-65.2,65.2-65.2c16.7,0,32,6.3,43.5,16.7c-11.9-13.3-29.3-21.7-48.5-21.7
			c-36,0-65.2,29.2-65.2,65.2c0,19.3,8.4,36.6,21.7,48.5C981.6,1001.5,975.3,986.2,975.3,969.5z"/>
		<g>
			<path class="st4" d="M1089,926c10.4,11.5,16.7,26.8,16.7,43.5c0,36-29.2,65.2-65.2,65.2c-16.7,0-32-6.3-43.5-16.7
				c11.9,13.3,29.3,21.7,48.5,21.7c36,0,65.2-29.2,65.2-65.2C1110.7,955.2,1102.3,937.9,1089,926z"/>
		</g>
		<g>
			
				<ellipse transform="matrix(0.7071 -0.7071 0.7071 0.7071 -380.7846 1019.7046)" class="st9" cx="1040.5" cy="969.5" rx="65.2" ry="65.2"/>
		</g>
	</g>
</g>
<line class="st10" x1="71.2" y1="1028.6" x2="94.6" y2="1028.6"/>
<line class="st10" x1="71.2" y1="1018.6" x2="94.6" y2="1018.6"/>
<line class="st10" x1="71.2" y1="1008.6" x2="94.6" y2="1008.6"/>
<line class="st10" x1="71.2" y1="998.6" x2="94.6" y2="998.6"/>
<line class="st10" x1="71.2" y1="988.6" x2="94.6" y2="988.6"/>
<line class="st10" x1="71.2" y1="978.6" x2="94.6" y2="978.6"/>
<line class="st10" x1="71.2" y1="968.6" x2="94.6" y2="968.6"/>
<line class="st10" x1="71.2" y1="958.6" x2="94.6" y2="958.6"/>
<line class="st10" x1="71.2" y1="948.6" x2="94.6" y2="948.6"/>
<line class="st10" x1="71.2" y1="938.6" x2="94.6" y2="938.6"/>
<line class="st10" x1="71.2" y1="928.6" x2="94.6" y2="928.6"/>
<line class="st10" x1="71.2" y1="918.6" x2="94.6" y2="918.6"/>
<line class="st10" x1="71.2" y1="908.6" x2="94.6" y2="908.6"/>
<line class="st10" x1="71.2" y1="898.6" x2="94.6" y2="898.6"/>
<line class="st10" x1="71.2" y1="888.6" x2="94.6" y2="888.6"/>
<line class="st10" x1="71.2" y1="878.6" x2="94.6" y2="878.6"/>
<line class="st10" x1="71.2" y1="868.6" x2="94.6" y2="868.6"/>
<line class="st10" x1="71.2" y1="858.6" x2="94.6" y2="858.6"/>
<line class="st10" x1="71.2" y1="848.6" x2="94.6" y2="848.6"/>
<line class="st10" x1="71.2" y1="838.6" x2="94.6" y2="838.6"/>
<line class="st10" x1="71.2" y1="828.6" x2="94.6" y2="828.6"/>
<line class="st10" x1="71.2" y1="818.6" x2="94.6" y2="818.6"/>
<line class="st10" x1="71.2" y1="808.6" x2="94.6" y2="808.6"/>
<line class="st10" x1="71.2" y1="798.6" x2="94.6" y2="798.6"/>
<line class="st10" x1="71.2" y1="788.6" x2="94.6" y2="788.6"/>
<line class="st10" x1="71.2" y1="778.6" x2="94.6" y2="778.6"/>
<line class="st10" x1="71.2" y1="768.6" x2="94.6" y2="768.6"/>
<line class="st10" x1="71.2" y1="758.6" x2="94.6" y2="758.6"/>
<line class="st10" x1="71.2" y1="748.6" x2="94.6" y2="748.6"/>
<line class="st10" x1="71.2" y1="738.6" x2="94.6" y2="738.6"/>
<line class="st10" x1="71.2" y1="728.6" x2="94.6" y2="728.6"/>
<line class="st10" x1="71.2" y1="718.6" x2="94.6" y2="718.6"/>
<line class="st10" x1="71.2" y1="708.6" x2="94.6" y2="708.6"/>
<line class="st10" x1="71.2" y1="698.6" x2="94.6" y2="698.6"/>
<line class="st10" x1="71.2" y1="688.6" x2="94.6" y2="688.6"/>
<line class="st10" x1="71.2" y1="678.6" x2="94.6" y2="678.6"/>
<line class="st10" x1="71.2" y1="668.6" x2="94.6" y2="668.6"/>
<line class="st10" x1="71.2" y1="658.6" x2="94.6" y2="658.6"/>
<line class="st10" x1="71.2" y1="648.6" x2="94.6" y2="648.6"/>
<line class="st10" x1="71.2" y1="638.6" x2="94.6" y2="638.6"/>
<line class="st10" x1="71.2" y1="628.6" x2="94.6" y2="628.6"/>
<line class="st10" x1="71.2" y1="618.6" x2="94.6" y2="618.6"/>
<line class="st10" x1="71.2" y1="608.6" x2="94.6" y2="608.6"/>
<line class="st10" x1="71.2" y1="598.6" x2="94.6" y2="598.6"/>
<line class="st10" x1="71.2" y1="588.6" x2="94.6" y2="588.6"/>
<line class="st10" x1="71.2" y1="578.6" x2="94.6" y2="578.6"/>
<line class="st10" x1="71.2" y1="568.6" x2="94.6" y2="568.6"/>
<line class="st10" x1="71.2" y1="558.6" x2="94.6" y2="558.6"/>
<line class="st10" x1="71.2" y1="548.6" x2="94.6" y2="548.6"/>
<line class="st10" x1="71.2" y1="538.6" x2="94.6" y2="538.6"/>
<line class="st10" x1="71.2" y1="528.6" x2="94.6" y2="528.6"/>
<line class="st10" x1="71.2" y1="518.6" x2="94.6" y2="518.6"/>
<line class="st10" x1="71.2" y1="508.6" x2="94.6" y2="508.6"/>
<line class="st10" x1="71.2" y1="498.6" x2="94.6" y2="498.6"/>
<line class="st10" x1="71.2" y1="488.6" x2="94.6" y2="488.6"/>
<line class="st10" x1="71.2" y1="478.6" x2="94.6" y2="478.6"/>
<line class="st10" x1="71.2" y1="468.6" x2="94.6" y2="468.6"/>
<line class="st10" x1="71.2" y1="458.6" x2="94.6" y2="458.6"/>
<line class="st10" x1="71.2" y1="448.6" x2="94.6" y2="448.6"/>
<line class="st10" x1="71.2" y1="438.6" x2="94.6" y2="438.6"/>
<line class="st10" x1="71.2" y1="428.6" x2="94.6" y2="428.6"/>
<line class="st10" x1="71.2" y1="418.6" x2="94.6" y2="418.6"/>
<line class="st10" x1="71.2" y1="408.6" x2="94.6" y2="408.6"/>
<line class="st10" x1="71.2" y1="398.6" x2="94.6" y2="398.6"/>
<line class="st10" x1="71.2" y1="388.6" x2="94.6" y2="388.6"/>
<line class="st10" x1="71.2" y1="378.6" x2="94.6" y2="378.6"/>
<line class="st10" x1="71.2" y1="368.6" x2="94.6" y2="368.6"/>
<line class="st10" x1="71.2" y1="358.6" x2="94.6" y2="358.6"/>
<line class="st10" x1="71.2" y1="348.6" x2="94.6" y2="348.6"/>
<line class="st10" x1="71.2" y1="338.6" x2="94.6" y2="338.6"/>
<line class="st10" x1="71.2" y1="328.6" x2="94.6" y2="328.6"/>
<line class="st10" x1="71.2" y1="318.6" x2="94.6" y2="318.6"/>
<line class="st10" x1="71.2" y1="308.6" x2="94.6" y2="308.6"/>
<line class="st10" x1="71.2" y1="298.6" x2="94.6" y2="298.6"/>
<line class="st10" x1="71.2" y1="288.6" x2="94.6" y2="288.6"/>
<line class="st10" x1="71.2" y1="278.6" x2="94.6" y2="278.6"/>
<line class="st10" x1="71.2" y1="268.6" x2="94.6" y2="268.6"/>
<line class="st10" x1="71.2" y1="258.6" x2="94.6" y2="258.6"/>
<line class="st10" x1="71.2" y1="248.6" x2="94.6" y2="248.6"/>
<line class="st10" x1="71.2" y1="238.6" x2="94.6" y2="238.6"/>
<line class="st10" x1="71.2" y1="228.6" x2="94.6" y2="228.6"/>
<line class="st10" x1="71.2" y1="218.6" x2="94.6" y2="218.6"/>
<line class="st10" x1="71.2" y1="208.6" x2="94.6" y2="208.6"/>
<line class="st10" x1="71.2" y1="198.6" x2="94.6" y2="198.6"/>
<line class="st10" x1="71.2" y1="188.6" x2="94.6" y2="188.6"/>
<line class="st10" x1="71.2" y1="178.6" x2="94.6" y2="178.6"/>
<line class="st10" x1="1125.7" y1="1028.6" x2="1149.1" y2="1028.6"/>
<line class="st10" x1="1125.7" y1="1018.6" x2="1149.1" y2="1018.6"/>
<line class="st10" x1="1125.7" y1="1008.6" x2="1149.1" y2="1008.6"/>
<line class="st10" x1="1125.7" y1="998.6" x2="1149.1" y2="998.6"/>
<line class="st10" x1="1125.7" y1="988.6" x2="1149.1" y2="988.6"/>
<line class="st10" x1="1125.7" y1="978.6" x2="1149.1" y2="978.6"/>
<line class="st10" x1="1125.7" y1="968.6" x2="1149.1" y2="968.6"/>
<line class="st10" x1="1125.7" y1="958.6" x2="1149.1" y2="958.6"/>
<line class="st10" x1="1125.7" y1="948.6" x2="1149.1" y2="948.6"/>
<line class="st10" x1="1125.7" y1="938.6" x2="1149.1" y2="938.6"/>
<line class="st10" x1="1125.7" y1="928.6" x2="1149.1" y2="928.6"/>
<line class="st10" x1="1125.7" y1="918.6" x2="1149.1" y2="918.6"/>
<line class="st10" x1="1125.7" y1="908.6" x2="1149.1" y2="908.6"/>
<line class="st10" x1="1125.7" y1="898.6" x2="1149.1" y2="898.6"/>
<line class="st10" x1="1125.7" y1="888.6" x2="1149.1" y2="888.6"/>
<line class="st10" x1="1125.7" y1="878.6" x2="1149.1" y2="878.6"/>
<line class="st10" x1="1125.7" y1="868.6" x2="1149.1" y2="868.6"/>
<line class="st10" x1="1125.7" y1="858.6" x2="1149.1" y2="858.6"/>
<line class="st10" x1="1125.7" y1="848.6" x2="1149.1" y2="848.6"/>
<line class="st10" x1="1125.7" y1="838.6" x2="1149.1" y2="838.6"/>
<line class="st10" x1="1125.7" y1="828.6" x2="1149.1" y2="828.6"/>
<line class="st10" x1="1125.7" y1="818.6" x2="1149.1" y2="818.6"/>
<line class="st10" x1="1125.7" y1="808.6" x2="1149.1" y2="808.6"/>
<line class="st10" x1="1125.7" y1="798.6" x2="1149.1" y2="798.6"/>
<line class="st10" x1="1125.7" y1="788.6" x2="1149.1" y2="788.6"/>
<line class="st10" x1="1125.7" y1="778.6" x2="1149.1" y2="778.6"/>
<line class="st10" x1="1125.7" y1="768.6" x2="1149.1" y2="768.6"/>
<line class="st10" x1="1125.7" y1="758.6" x2="1149.1" y2="758.6"/>
<line class="st10" x1="1125.7" y1="748.6" x2="1149.1" y2="748.6"/>
<line class="st10" x1="1125.7" y1="738.6" x2="1149.1" y2="738.6"/>
<line class="st10" x1="1125.7" y1="728.6" x2="1149.1" y2="728.6"/>
<line class="st10" x1="1125.7" y1="718.6" x2="1149.1" y2="718.6"/>
<line class="st10" x1="1125.7" y1="708.6" x2="1149.1" y2="708.6"/>
<line class="st10" x1="1125.7" y1="698.6" x2="1149.1" y2="698.6"/>
<line class="st10" x1="1125.7" y1="688.6" x2="1149.1" y2="688.6"/>
<line class="st10" x1="1125.7" y1="678.6" x2="1149.1" y2="678.6"/>
<line class="st10" x1="1125.7" y1="668.6" x2="1149.1" y2="668.6"/>
<line class="st10" x1="1125.7" y1="658.6" x2="1149.1" y2="658.6"/>
<line class="st10" x1="1125.7" y1="648.6" x2="1149.1" y2="648.6"/>
<line class="st10" x1="1125.7" y1="638.6" x2="1149.1" y2="638.6"/>
<line class="st10" x1="1125.7" y1="628.6" x2="1149.1" y2="628.6"/>
<line class="st10" x1="1125.7" y1="618.6" x2="1149.1" y2="618.6"/>
<line class="st10" x1="1125.7" y1="608.6" x2="1149.1" y2="608.6"/>
<line class="st10" x1="1125.7" y1="598.6" x2="1149.1" y2="598.6"/>
<line class="st10" x1="1125.7" y1="588.6" x2="1149.1" y2="588.6"/>
<line class="st10" x1="1125.7" y1="578.6" x2="1149.1" y2="578.6"/>
<line class="st10" x1="1125.7" y1="568.6" x2="1149.1" y2="568.6"/>
<line class="st10" x1="1125.7" y1="558.6" x2="1149.1" y2="558.6"/>
<line class="st10" x1="1125.7" y1="548.6" x2="1149.1" y2="548.6"/>
<line class="st10" x1="1125.7" y1="538.6" x2="1149.1" y2="538.6"/>
<line class="st10" x1="1125.7" y1="528.6" x2="1149.1" y2="528.6"/>
<line class="st10" x1="1125.7" y1="518.6" x2="1149.1" y2="518.6"/>
<line class="st10" x1="1125.7" y1="508.6" x2="1149.1" y2="508.6"/>
<line class="st10" x1="1125.7" y1="498.6" x2="1149.1" y2="498.6"/>
<line class="st10" x1="1125.7" y1="488.6" x2="1149.1" y2="488.6"/>
<line class="st10" x1="1125.7" y1="478.6" x2="1149.1" y2="478.6"/>
<line class="st10" x1="1125.7" y1="468.6" x2="1149.1" y2="468.6"/>
<line class="st10" x1="1125.7" y1="458.6" x2="1149.1" y2="458.6"/>
<line class="st10" x1="1125.7" y1="448.6" x2="1149.1" y2="448.6"/>
<line class="st10" x1="1125.7" y1="438.6" x2="1149.1" y2="438.6"/>
<line class="st10" x1="1125.7" y1="428.6" x2="1149.1" y2="428.6"/>
<line class="st10" x1="1125.7" y1="418.6" x2="1149.1" y2="418.6"/>
<line class="st10" x1="1125.7" y1="408.6" x2="1149.1" y2="408.6"/>
<line class="st10" x1="1125.7" y1="398.6" x2="1149.1" y2="398.6"/>
<line class="st10" x1="1125.7" y1="388.6" x2="1149.1" y2="388.6"/>
<line class="st10" x1="1125.7" y1="378.6" x2="1149.1" y2="378.6"/>
<line class="st10" x1="1125.7" y1="368.6" x2="1149.1" y2="368.6"/>
<line class="st10" x1="1125.7" y1="358.6" x2="1149.1" y2="358.6"/>
<line class="st10" x1="1125.7" y1="348.6" x2="1149.1" y2="348.6"/>
<line class="st10" x1="1125.7" y1="338.6" x2="1149.1" y2="338.6"/>
<line class="st10" x1="1125.7" y1="328.6" x2="1149.1" y2="328.6"/>
<line class="st10" x1="1125.7" y1="318.6" x2="1149.1" y2="318.6"/>
<line class="st10" x1="1125.7" y1="308.6" x2="1149.1" y2="308.6"/>
<line class="st10" x1="1125.7" y1="298.6" x2="1149.1" y2="298.6"/>
<line class="st10" x1="1125.7" y1="288.6" x2="1149.1" y2="288.6"/>
<line class="st10" x1="1125.7" y1="278.6" x2="1149.1" y2="278.6"/>
<line class="st10" x1="1125.7" y1="268.6" x2="1149.1" y2="268.6"/>
<line class="st10" x1="1125.7" y1="258.6" x2="1149.1" y2="258.6"/>
<line class="st10" x1="1125.7" y1="248.6" x2="1149.1" y2="248.6"/>
<line class="st10" x1="1125.7" y1="238.6" x2="1149.1" y2="238.6"/>
<line class="st10" x1="1125.7" y1="228.6" x2="1149.1" y2="228.6"/>
<line class="st10" x1="1125.7" y1="218.6" x2="1149.1" y2="218.6"/>
<line class="st10" x1="1125.7" y1="208.6" x2="1149.1" y2="208.6"/>
<line class="st10" x1="1125.7" y1="198.6" x2="1149.1" y2="198.6"/>
<line class="st10" x1="1125.7" y1="188.6" x2="1149.1" y2="188.6"/>
<line class="st10" x1="1125.7" y1="178.6" x2="1149.1" y2="178.6"/>
<line class="st10" x1="269.2" y1="144.4" x2="269.2" y2="167.8"/>
<line class="st10" x1="279.2" y1="144.4" x2="279.2" y2="167.8"/>
<line class="st10" x1="289.2" y1="144.4" x2="289.2" y2="167.8"/>
<line class="st10" x1="299.2" y1="144.4" x2="299.2" y2="167.8"/>
<line class="st10" x1="309.2" y1="144.4" x2="309.2" y2="167.8"/>
<line class="st10" x1="319.2" y1="144.4" x2="319.2" y2="167.8"/>
<line class="st10" x1="329.2" y1="144.4" x2="329.2" y2="167.8"/>
<line class="st10" x1="339.2" y1="144.4" x2="339.2" y2="167.8"/>
<line class="st10" x1="349.2" y1="144.4" x2="349.2" y2="167.8"/>
<line class="st10" x1="359.2" y1="144.4" x2="359.2" y2="167.8"/>
<line class="st10" x1="369.2" y1="144.4" x2="369.2" y2="167.8"/>
<line class="st10" x1="379.2" y1="144.4" x2="379.2" y2="167.8"/>
<line class="st10" x1="389.2" y1="144.4" x2="389.2" y2="167.8"/>
<line class="st10" x1="399.2" y1="144.4" x2="399.2" y2="167.8"/>
<line class="st10" x1="409.2" y1="144.4" x2="409.2" y2="167.8"/>
<line class="st10" x1="419.2" y1="144.4" x2="419.2" y2="167.8"/>
<line class="st10" x1="429.2" y1="144.4" x2="429.2" y2="167.8"/>
<line class="st10" x1="99.3" y1="144.4" x2="99.3" y2="167.8"/>
<line class="st10" x1="109.3" y1="144.4" x2="109.3" y2="167.8"/>
<line class="st10" x1="119.3" y1="144.4" x2="119.3" y2="167.8"/>
<line class="st10" x1="129.3" y1="144.4" x2="129.3" y2="167.8"/>
<line class="st10" x1="139.3" y1="144.4" x2="139.3" y2="167.8"/>
<line class="st10" x1="149.3" y1="144.4" x2="149.3" y2="167.8"/>
<line class="st10" x1="159.3" y1="144.4" x2="159.3" y2="167.8"/>
<line class="st10" x1="169.3" y1="144.4" x2="169.3" y2="167.8"/>
<line class="st10" x1="179.3" y1="144.4" x2="179.3" y2="167.8"/>
<line class="st10" x1="189.3" y1="144.4" x2="189.3" y2="167.8"/>
<line class="st10" x1="199.3" y1="144.4" x2="199.3" y2="167.8"/>
<line class="st10" x1="209.3" y1="144.4" x2="209.3" y2="167.8"/>
<line class="st10" x1="219.3" y1="144.4" x2="219.3" y2="167.8"/>
<line class="st10" x1="229.3" y1="144.4" x2="229.3" y2="167.8"/>
<line class="st10" x1="239.3" y1="144.4" x2="239.3" y2="167.8"/>
<line class="st10" x1="249.3" y1="144.4" x2="249.3" y2="167.8"/>
<line class="st10" x1="259.3" y1="144.4" x2="259.3" y2="167.8"/>
<line class="st10" x1="439.2" y1="144.4" x2="439.2" y2="167.8"/>
<line class="st10" x1="449.2" y1="144.4" x2="449.2" y2="167.8"/>
<line class="st10" x1="459.2" y1="144.4" x2="459.2" y2="167.8"/>
<line class="st10" x1="469.2" y1="144.4" x2="469.2" y2="167.8"/>
<line class="st10" x1="479.2" y1="144.4" x2="479.2" y2="167.8"/>
<line class="st10" x1="489.2" y1="144.4" x2="489.2" y2="167.8"/>
<line class="st10" x1="499.2" y1="144.4" x2="499.2" y2="167.8"/>
<line class="st10" x1="509.2" y1="144.4" x2="509.2" y2="167.8"/>
<line class="st10" x1="519.2" y1="144.4" x2="519.2" y2="167.8"/>
<line class="st10" x1="529.2" y1="144.4" x2="529.2" y2="167.8"/>
<line class="st10" x1="539.2" y1="144.4" x2="539.2" y2="167.8"/>
<line class="st10" x1="549.2" y1="144.4" x2="549.2" y2="167.8"/>
<line class="st10" x1="559.2" y1="144.4" x2="559.2" y2="167.8"/>
<line class="st10" x1="569.2" y1="144.4" x2="569.2" y2="167.8"/>
<line class="st10" x1="579.2" y1="144.4" x2="579.2" y2="167.8"/>
<line class="st10" x1="589.2" y1="144.4" x2="589.2" y2="167.8"/>
<line class="st10" x1="599.2" y1="144.4" x2="599.2" y2="167.8"/>
<line class="st10" x1="609.2" y1="144.4" x2="609.2" y2="167.8"/>
<line class="st10" x1="619.2" y1="144.4" x2="619.2" y2="167.8"/>
<line class="st10" x1="629.2" y1="144.4" x2="629.2" y2="167.8"/>
<line class="st10" x1="639.2" y1="144.4" x2="639.2" y2="167.8"/>
<line class="st10" x1="649.2" y1="144.4" x2="649.2" y2="167.8"/>
<line class="st10" x1="659.2" y1="144.4" x2="659.2" y2="167.8"/>
<line class="st10" x1="669.2" y1="144.4" x2="669.2" y2="167.8"/>
<line class="st10" x1="679.2" y1="144.4" x2="679.2" y2="167.8"/>
<line class="st10" x1="689.2" y1="144.4" x2="689.2" y2="167.8"/>
<line class="st10" x1="699.2" y1="144.4" x2="699.2" y2="167.8"/>
<line class="st10" x1="709.2" y1="144.4" x2="709.2" y2="167.8"/>
<line class="st10" x1="719.2" y1="144.4" x2="719.2" y2="167.8"/>
<line class="st10" x1="729.2" y1="144.4" x2="729.2" y2="167.8"/>
<line class="st10" x1="739.2" y1="144.4" x2="739.2" y2="167.8"/>
<line class="st10" x1="749.2" y1="144.4" x2="749.2" y2="167.8"/>
<line class="st10" x1="759.2" y1="144.4" x2="759.2" y2="167.8"/>
<line class="st10" x1="769.2" y1="144.4" x2="769.2" y2="167.8"/>
<line class="st10" x1="779.2" y1="144.4" x2="779.2" y2="167.8"/>
<line class="st10" x1="789.2" y1="144.4" x2="789.2" y2="167.8"/>
<line class="st10" x1="799.2" y1="144.4" x2="799.2" y2="167.8"/>
<line class="st10" x1="809.2" y1="144.4" x2="809.2" y2="167.8"/>
<line class="st10" x1="819.2" y1="144.4" x2="819.2" y2="167.8"/>
<line class="st10" x1="829.2" y1="144.4" x2="829.2" y2="167.8"/>
<line class="st10" x1="839.2" y1="144.4" x2="839.2" y2="167.8"/>
<line class="st10" x1="849.2" y1="144.4" x2="849.2" y2="167.8"/>
<line class="st10" x1="859.2" y1="144.4" x2="859.2" y2="167.8"/>
<line class="st10" x1="869.2" y1="144.4" x2="869.2" y2="167.8"/>
<line class="st10" x1="879.2" y1="144.4" x2="879.2" y2="167.8"/>
<line class="st10" x1="889.2" y1="144.4" x2="889.2" y2="167.8"/>
<line class="st10" x1="899.2" y1="144.4" x2="899.2" y2="167.8"/>
<line class="st10" x1="909.2" y1="144.4" x2="909.2" y2="167.8"/>
<line class="st10" x1="919.2" y1="144.4" x2="919.2" y2="167.8"/>
<line class="st10" x1="929.2" y1="144.4" x2="929.2" y2="167.8"/>
<line class="st10" x1="939.2" y1="144.4" x2="939.2" y2="167.8"/>
<line class="st10" x1="949.2" y1="144.4" x2="949.2" y2="167.8"/>
<line class="st10" x1="959.2" y1="144.4" x2="959.2" y2="167.8"/>
<line class="st10" x1="969.2" y1="144.4" x2="969.2" y2="167.8"/>
<line class="st10" x1="979.2" y1="144.4" x2="979.2" y2="167.8"/>
<line class="st10" x1="989.2" y1="144.4" x2="989.2" y2="167.8"/>
<line class="st10" x1="999.2" y1="144.4" x2="999.2" y2="167.8"/>
<line class="st10" x1="1009.2" y1="144.4" x2="1009.2" y2="167.8"/>
<line class="st10" x1="1019.2" y1="144.4" x2="1019.2" y2="167.8"/>
<line class="st10" x1="1029.2" y1="144.4" x2="1029.2" y2="167.8"/>
<line class="st10" x1="1039.2" y1="144.4" x2="1039.2" y2="167.8"/>
<line class="st10" x1="1049.2" y1="144.4" x2="1049.2" y2="167.8"/>
<line class="st10" x1="1059.2" y1="144.4" x2="1059.2" y2="167.8"/>
<line class="st10" x1="1069.2" y1="144.4" x2="1069.2" y2="167.8"/>
<line class="st10" x1="1079.2" y1="144.4" x2="1079.2" y2="167.8"/>
<line class="st10" x1="1089.2" y1="144.4" x2="1089.2" y2="167.8"/>
<line class="st10" x1="1099.2" y1="144.4" x2="1099.2" y2="167.8"/>
<line class="st10" x1="1109.2" y1="144.4" x2="1109.2" y2="167.8"/>
<line class="st10" x1="1119.2" y1="144.4" x2="1119.2" y2="167.8"/>
</svg>
