<?xml version="1.0" encoding="utf-8"?>
<!-- Generator: Adobe Illustrator 27.0.0, SVG Export Plug-In . SVG Version: 6.00 Build 0)  -->
<svg version="1.1" id="Capa_1" xmlns="http://www.w3.org/2000/svg" xmlns:xlink="http://www.w3.org/1999/xlink" x="0px" y="0px"
	 width="1088.9px" height="960px" viewBox="0 0 1088.9 960" style="enable-background:new 0 0 1088.9 960;" xml:space="preserve">
<style type="text/css">
	.st0{fill:#071CAD;}
	.st1{fill:#0A1989;}
	.st2{fill:#232AE0;}
	.st3{fill:#FFFFFF;fill-opacity:0.46;}
	.st4{fill:#061D8E;}
	.st5{fill:none;stroke:#232AE0;stroke-width:5;stroke-miterlimit:10;}
	.st6{fill:none;stroke:#232AE0;stroke-width:4.9996;stroke-miterlimit:9.9992;}
	.st7{fill:none;stroke:#232AE0;stroke-width:5.0001;stroke-miterlimit:10;}
	.st8{fill:none;stroke:#232AE0;stroke-width:5.0002;stroke-miterlimit:10.0007;}
	.st9{fill:none;stroke:#232AE0;stroke-width:5;stroke-miterlimit:9.9998;}
	.st10{opacity:0.28;fill:none;stroke:#FFFFFF;stroke-width:3;stroke-miterlimit:10;enable-background:new    ;}
</style>
<path class="st0" d="M1081.2,0H1070H544h-1.4H19H7.8C3.5,0,0,3.5,0,7.7v862.2c0,44.5,12.9,49.5,29,50.1h1.2H38v-27.7v-4.5V45.3
	c0-4.3,3.4-7.7,7.7-7.7h496.9h1.4h499.2c4.3,0,7.7,3.4,7.7,7.7v842.5v4.5V920h7.8h1.2c16.1-0.6,29-5.6,29-50.1V7.7
	C1088.9,3.5,1085.4,0,1081.2,0z"/>
<path class="st0" d="M998.5,953.4v1.1h-909v-1.1c0-19.3,13.9-54.8,31-54.8h847C984.6,898.6,998.5,934.2,998.5,953.4z"/>
<path class="st1" d="M64,957.5L64,957.5c0-4.7,3.8-8.5,8.5-8.5h943c4.7,0,8.5,3.8,8.5,8.5l0,0c0,1.4-1.1,2.5-2.5,2.5h-955
	C65.1,960,64,958.9,64,957.5z"/>
<path class="st2" d="M33.3,30.8V920h1021.5V30.8H33.3z M109.5,893.7c-36,0-65.2-29.2-65.2-65.2s29.2-65.2,65.2-65.2
	s65.2,29.2,65.2,65.2S145.5,893.7,109.5,893.7z M109.5,749.7c-36,0-65.2-29.2-65.2-65.2s29.2-65.2,65.2-65.2s65.2,29.2,65.2,65.2
	S145.5,749.7,109.5,749.7z M109.5,605.7c-36,0-65.2-29.2-65.2-65.2s29.2-65.2,65.2-65.2s65.2,29.2,65.2,65.2
	S145.5,605.7,109.5,605.7z M109.5,461.7c-36,0-65.2-29.2-65.2-65.2s29.2-65.2,65.2-65.2s65.2,29.2,65.2,65.2
	S145.5,461.7,109.5,461.7z M109.5,317.7c-36,0-65.2-29.2-65.2-65.2s29.2-65.2,65.2-65.2s65.2,29.2,65.2,65.2
	S145.5,317.7,109.5,317.7z M109.5,173.7c-36,0-65.2-29.2-65.2-65.2s29.2-65.2,65.2-65.2s65.2,29.2,65.2,65.2
	S145.5,173.7,109.5,173.7z M253.6,893.7c-36,0-65.2-29.2-65.2-65.2s29.2-65.2,65.2-65.2c36.1,0,65.2,29.2,65.2,65.2
	S289.6,893.7,253.6,893.7z M253.6,749.7c-36,0-65.2-29.2-65.2-65.2s29.2-65.2,65.2-65.2c36.1,0,65.2,29.2,65.2,65.2
	S289.6,749.7,253.6,749.7z M253.6,605.7c-36,0-65.2-29.2-65.2-65.2s29.2-65.2,65.2-65.2c36.1,0,65.2,29.2,65.2,65.2
	S289.6,605.7,253.6,605.7z M253.6,461.7c-36,0-65.2-29.2-65.2-65.2s29.2-65.2,65.2-65.2c36.1,0,65.2,29.2,65.2,65.2
	S289.6,461.7,253.6,461.7z M253.6,317.7c-36,0-65.2-29.2-65.2-65.2s29.2-65.2,65.2-65.2c36.1,0,65.2,29.2,65.2,65.2
	S289.6,317.7,253.6,317.7z M253.6,173.7c-36,0-65.2-29.2-65.2-65.2s29.2-65.2,65.2-65.2c36.1,0,65.2,29.2,65.2,65.2
	S289.6,173.7,253.6,173.7z M397.8,893.7c-36,0-65.2-29.2-65.2-65.2s29.2-65.2,65.2-65.2s65.2,29.2,65.2,65.2
	S433.8,893.7,397.8,893.7z M397.8,749.7c-36,0-65.2-29.2-65.2-65.2s29.2-65.2,65.2-65.2s65.2,29.2,65.2,65.2
	S433.8,749.7,397.8,749.7z M397.8,605.7c-36,0-65.2-29.2-65.2-65.2s29.2-65.2,65.2-65.2s65.2,29.2,65.2,65.2
	S433.8,605.7,397.8,605.7z M397.8,461.7c-36,0-65.2-29.2-65.2-65.2s29.2-65.2,65.2-65.2s65.2,29.2,65.2,65.2
	S433.8,461.7,397.8,461.7z M397.8,317.7c-36,0-65.2-29.2-65.2-65.2s29.2-65.2,65.2-65.2s65.2,29.2,65.2,65.2
	S433.8,317.7,397.8,317.7z M397.8,173.7c-36,0-65.2-29.2-65.2-65.2s29.2-65.2,65.2-65.2S463,72.5,463,108.5S433.8,173.7,397.8,173.7
	z M542,893.7c-36,0-65.2-29.2-65.2-65.2s29.2-65.2,65.2-65.2s65.2,29.2,65.2,65.2S578,893.7,542,893.7z M542,749.7
	c-36,0-65.2-29.2-65.2-65.2s29.2-65.2,65.2-65.2s65.2,29.2,65.2,65.2S578,749.7,542,749.7z M542,605.7c-36,0-65.2-29.2-65.2-65.2
	s29.2-65.2,65.2-65.2s65.2,29.2,65.2,65.2S578,605.7,542,605.7z M542,461.7c-36,0-65.2-29.2-65.2-65.2s29.2-65.2,65.2-65.2
	s65.2,29.2,65.2,65.2S578,461.7,542,461.7z M542,317.7c-36,0-65.2-29.2-65.2-65.2s29.2-65.2,65.2-65.2s65.2,29.2,65.2,65.2
	S578,317.7,542,317.7z M542,173.7c-36,0-65.2-29.2-65.2-65.2S506,43.3,542,43.3s65.2,29.2,65.2,65.2S578,173.7,542,173.7z
	 M686.1,893.7c-36,0-65.2-29.2-65.2-65.2s29.2-65.2,65.2-65.2c36.1,0,65.2,29.2,65.2,65.2S722.1,893.7,686.1,893.7z M686.1,749.7
	c-36,0-65.2-29.2-65.2-65.2s29.2-65.2,65.2-65.2c36.1,0,65.2,29.2,65.2,65.2S722.1,749.7,686.1,749.7z M686.1,605.7
	c-36,0-65.2-29.2-65.2-65.2s29.2-65.2,65.2-65.2c36.1,0,65.2,29.2,65.2,65.2S722.1,605.7,686.1,605.7z M686.1,461.7
	c-36,0-65.2-29.2-65.2-65.2s29.2-65.2,65.2-65.2c36.1,0,65.2,29.2,65.2,65.2S722.1,461.7,686.1,461.7z M686.1,317.7
	c-36,0-65.2-29.2-65.2-65.2s29.2-65.2,65.2-65.2c36.1,0,65.2,29.2,65.2,65.2S722.1,317.7,686.1,317.7z M686.1,173.7
	c-36,0-65.2-29.2-65.2-65.2s29.2-65.2,65.2-65.2c36.1,0,65.2,29.2,65.2,65.2S722.1,173.7,686.1,173.7z M830.3,893.7
	c-36,0-65.2-29.2-65.2-65.2s29.2-65.2,65.2-65.2s65.2,29.2,65.2,65.2S866.3,893.7,830.3,893.7z M830.3,749.7
	c-36,0-65.2-29.2-65.2-65.2s29.2-65.2,65.2-65.2s65.2,29.2,65.2,65.2S866.3,749.7,830.3,749.7z M830.3,605.7
	c-36,0-65.2-29.2-65.2-65.2s29.2-65.2,65.2-65.2s65.2,29.2,65.2,65.2S866.3,605.7,830.3,605.7z M830.3,461.7
	c-36,0-65.2-29.2-65.2-65.2s29.2-65.2,65.2-65.2s65.2,29.2,65.2,65.2S866.3,461.7,830.3,461.7z M830.3,317.7
	c-36,0-65.2-29.2-65.2-65.2s29.2-65.2,65.2-65.2s65.2,29.2,65.2,65.2S866.3,317.7,830.3,317.7z M830.3,173.7
	c-36,0-65.2-29.2-65.2-65.2s29.2-65.2,65.2-65.2s65.2,29.2,65.2,65.2S866.3,173.7,830.3,173.7z M974.5,893.7
	c-36,0-65.2-29.2-65.2-65.2s29.2-65.2,65.2-65.2s65.2,29.2,65.2,65.2S1010.5,893.7,974.5,893.7z M974.5,749.7
	c-36,0-65.2-29.2-65.2-65.2s29.2-65.2,65.2-65.2s65.2,29.2,65.2,65.2S1010.5,749.7,974.5,749.7z M974.5,605.7
	c-36,0-65.2-29.2-65.2-65.2s29.2-65.2,65.2-65.2s65.2,29.2,65.2,65.2S1010.5,605.7,974.5,605.7z M974.5,461.7
	c-36,0-65.2-29.2-65.2-65.2s29.2-65.2,65.2-65.2s65.2,29.2,65.2,65.2S1010.5,461.7,974.5,461.7z M974.5,317.7
	c-36,0-65.2-29.2-65.2-65.2s29.2-65.2,65.2-65.2s65.2,29.2,65.2,65.2S1010.5,317.7,974.5,317.7z M974.5,173.7
	c-36,0-65.2-29.2-65.2-65.2s29.2-65.2,65.2-65.2s65.2,29.2,65.2,65.2S1010.5,173.7,974.5,173.7z"/>
<g>
	<g>
		<path class="st3" d="M44.3,108.5c0-36,29.2-65.2,65.2-65.2c16.7,0,32,6.3,43.5,16.7c-11.9-13.3-29.3-21.7-48.5-21.7
			c-36,0-65.2,29.2-65.2,65.2c0,19.3,8.4,36.6,21.7,48.5C50.6,140.5,44.3,125.2,44.3,108.5z"/>
		<g>
			<path class="st4" d="M158,65c10.4,11.5,16.7,26.8,16.7,43.5c0,36-29.2,65.2-65.2,65.2c-16.7,0-32-6.3-43.5-16.7
				c11.9,13.3,29.3,21.7,48.5,21.7c36,0,65.2-29.2,65.2-65.2C179.7,94.2,171.3,76.9,158,65z"/>
		</g>
		<g>
			<circle class="st5" cx="109.5" cy="108.5" r="65.2"/>
		</g>
	</g>
	<g>
		<path class="st3" d="M188.5,108.5c0-36,29.2-65.2,65.2-65.2c16.7,0,32,6.3,43.5,16.7c-11.9-13.3-29.3-21.7-48.5-21.7
			c-36,0-65.2,29.2-65.2,65.2c0,19.3,8.4,36.6,21.7,48.5C194.8,140.5,188.5,125.2,188.5,108.5z"/>
		<g>
			<path class="st4" d="M302.2,65c10.4,11.5,16.7,26.8,16.7,43.5c0,36-29.2,65.2-65.2,65.2c-16.7,0-32-6.3-43.5-16.7
				c11.9,13.3,29.3,21.7,48.5,21.7c36,0,65.2-29.2,65.2-65.2C323.9,94.2,315.5,76.9,302.2,65z"/>
		</g>
		<g>
			<circle class="st5" cx="253.7" cy="108.5" r="65.2"/>
		</g>
	</g>
	<g>
		<path class="st3" d="M332.6,108.5c0-36,29.2-65.2,65.2-65.2c16.7,0,32,6.3,43.5,16.7c-11.9-13.3-29.3-21.7-48.5-21.7
			c-36,0-65.2,29.2-65.2,65.2c0,19.3,8.4,36.6,21.7,48.5C338.9,140.5,332.6,125.2,332.6,108.5z"/>
		<g>
			<path class="st4" d="M446.4,65c10.4,11.5,16.7,26.8,16.7,43.5c0,36-29.2,65.2-65.2,65.2c-16.7,0-32-6.3-43.5-16.7
				c11.9,13.3,29.3,21.7,48.5,21.7c36,0,65.2-29.2,65.2-65.2C468,94.2,459.7,76.9,446.4,65z"/>
		</g>
		<g>
			<circle class="st5" cx="397.8" cy="108.5" r="65.2"/>
		</g>
	</g>
	<g>
		<path class="st3" d="M476.8,108.5c0-36,29.2-65.2,65.2-65.2c16.7,0,32,6.3,43.5,16.7c-11.9-13.3-29.3-21.7-48.5-21.7
			c-36,0-65.2,29.2-65.2,65.2c0,19.3,8.4,36.6,21.7,48.5C483.1,140.5,476.8,125.2,476.8,108.5z"/>
		<g>
			<path class="st4" d="M590.5,65c10.4,11.5,16.7,26.8,16.7,43.5c0,36-29.2,65.2-65.2,65.2c-16.7,0-32-6.3-43.5-16.7
				c11.9,13.3,29.3,21.7,48.5,21.7c36,0,65.2-29.2,65.2-65.2C612.2,94.2,603.8,76.9,590.5,65z"/>
		</g>
		<g>
			<circle class="st5" cx="542" cy="108.5" r="65.2"/>
		</g>
	</g>
	<g>
		<path class="st3" d="M621,108.5c0-36,29.2-65.2,65.2-65.2c16.7,0,32,6.3,43.5,16.7c-11.9-13.3-29.3-21.7-48.5-21.7
			c-36,0-65.2,29.2-65.2,65.2c0,19.3,8.4,36.6,21.7,48.5C627.3,140.5,621,125.2,621,108.5z"/>
		<g>
			<path class="st4" d="M734.7,65c10.4,11.5,16.7,26.8,16.7,43.5c0,36-29.2,65.2-65.2,65.2c-16.7,0-32-6.3-43.5-16.7
				c11.9,13.3,29.3,21.7,48.5,21.7c36,0,65.2-29.2,65.2-65.2C756.4,94.2,748,76.9,734.7,65z"/>
		</g>
		<g>
			<circle class="st5" cx="686.2" cy="108.5" r="65.2"/>
		</g>
	</g>
	<g>
		<path class="st3" d="M765.1,108.5c0-36,29.2-65.2,65.2-65.2c16.7,0,32,6.3,43.5,16.7c-11.9-13.3-29.3-21.7-48.5-21.7
			c-36,0-65.2,29.2-65.2,65.2c0,19.3,8.4,36.6,21.7,48.5C771.4,140.5,765.1,125.2,765.1,108.5z"/>
		<g>
			<path class="st4" d="M878.9,65c10.4,11.5,16.7,26.8,16.7,43.5c0,36-29.2,65.2-65.2,65.2c-16.7,0-32-6.3-43.5-16.7
				c11.9,13.3,29.3,21.7,48.5,21.7c36,0,65.2-29.2,65.2-65.2C900.5,94.2,892.2,76.9,878.9,65z"/>
		</g>
		<g>
			<circle class="st5" cx="830.3" cy="108.5" r="65.2"/>
		</g>
	</g>
	<g>
		<path class="st3" d="M909.3,108.5c0-36,29.2-65.2,65.2-65.2c16.7,0,32,6.3,43.5,16.7c-11.9-13.3-29.3-21.7-48.5-21.7
			c-36,0-65.2,29.2-65.2,65.2c0,19.3,8.4,36.6,21.7,48.5C915.6,140.5,909.3,125.2,909.3,108.5z"/>
		<g>
			<path class="st4" d="M1023,65c10.4,11.5,16.7,26.8,16.7,43.5c0,36-29.2,65.2-65.2,65.2c-16.7,0-32-6.3-43.5-16.7
				c11.9,13.3,29.3,21.7,48.5,21.7c36,0,65.2-29.2,65.2-65.2C1044.7,94.2,1036.3,76.9,1023,65z"/>
		</g>
		<g>
			
				<ellipse transform="matrix(0.7071 -0.7071 0.7071 0.7071 208.6502 720.7246)" class="st6" cx="974.3" cy="108.5" rx="65.2" ry="65.2"/>
		</g>
	</g>
</g>
<g>
	<g>
		<path class="st3" d="M44.3,252.5c0-36,29.2-65.2,65.2-65.2c16.7,0,32,6.3,43.5,16.7c-11.9-13.3-29.3-21.7-48.5-21.7
			c-36,0-65.2,29.2-65.2,65.2c0,19.3,8.4,36.6,21.7,48.5C50.6,284.5,44.3,269.2,44.3,252.5z"/>
		<g>
			<path class="st4" d="M158,209c10.4,11.5,16.7,26.8,16.7,43.5c0,36-29.2,65.2-65.2,65.2c-16.7,0-32-6.3-43.5-16.7
				c11.9,13.3,29.3,21.7,48.5,21.7c36,0,65.2-29.2,65.2-65.2C179.7,238.2,171.3,220.9,158,209z"/>
		</g>
		<g>
			<circle class="st5" cx="109.5" cy="252.5" r="65.2"/>
		</g>
	</g>
	<g>
		<path class="st3" d="M188.5,252.5c0-36,29.2-65.2,65.2-65.2c16.7,0,32,6.3,43.5,16.7c-11.9-13.3-29.3-21.7-48.5-21.7
			c-36,0-65.2,29.2-65.2,65.2c0,19.3,8.4,36.6,21.7,48.5C194.8,284.5,188.5,269.2,188.5,252.5z"/>
		<g>
			<path class="st4" d="M302.2,209c10.4,11.5,16.7,26.8,16.7,43.5c0,36-29.2,65.2-65.2,65.2c-16.7,0-32-6.3-43.5-16.7
				c11.9,13.3,29.3,21.7,48.5,21.7c36,0,65.2-29.2,65.2-65.2C323.9,238.2,315.5,220.9,302.2,209z"/>
		</g>
		<g>
			<circle class="st5" cx="253.7" cy="252.5" r="65.2"/>
		</g>
	</g>
	<g>
		<path class="st3" d="M332.6,252.5c0-36,29.2-65.2,65.2-65.2c16.7,0,32,6.3,43.5,16.7c-11.9-13.3-29.3-21.7-48.5-21.7
			c-36,0-65.2,29.2-65.2,65.2c0,19.3,8.4,36.6,21.7,48.5C338.9,284.5,332.6,269.2,332.6,252.5z"/>
		<g>
			<path class="st4" d="M446.4,209c10.4,11.5,16.7,26.8,16.7,43.5c0,36-29.2,65.2-65.2,65.2c-16.7,0-32-6.3-43.5-16.7
				c11.9,13.3,29.3,21.7,48.5,21.7c36,0,65.2-29.2,65.2-65.2C468,238.2,459.7,220.9,446.4,209z"/>
		</g>
		<g>
			<circle class="st5" cx="397.8" cy="252.5" r="65.2"/>
		</g>
	</g>
	<g>
		<path class="st3" d="M476.8,252.5c0-36,29.2-65.2,65.2-65.2c16.7,0,32,6.3,43.5,16.7c-11.9-13.3-29.3-21.7-48.5-21.7
			c-36,0-65.2,29.2-65.2,65.2c0,19.3,8.4,36.6,21.7,48.5C483.1,284.5,476.8,269.2,476.8,252.5z"/>
		<g>
			<path class="st4" d="M590.5,209c10.4,11.5,16.7,26.8,16.7,43.5c0,36-29.2,65.2-65.2,65.2c-16.7,0-32-6.3-43.5-16.7
				c11.9,13.3,29.3,21.7,48.5,21.7c36,0,65.2-29.2,65.2-65.2C612.2,238.2,603.8,220.9,590.5,209z"/>
		</g>
		<g>
			<circle class="st5" cx="542" cy="252.5" r="65.2"/>
		</g>
	</g>
	<g>
		<path class="st3" d="M621,252.5c0-36,29.2-65.2,65.2-65.2c16.7,0,32,6.3,43.5,16.7c-11.9-13.3-29.3-21.7-48.5-21.7
			c-36,0-65.2,29.2-65.2,65.2c0,19.3,8.4,36.6,21.7,48.5C627.3,284.5,621,269.2,621,252.5z"/>
		<g>
			<path class="st4" d="M734.7,209c10.4,11.5,16.7,26.8,16.7,43.5c0,36-29.2,65.2-65.2,65.2c-16.7,0-32-6.3-43.5-16.7
				c11.9,13.3,29.3,21.7,48.5,21.7c36,0,65.2-29.2,65.2-65.2C756.4,238.2,748,220.9,734.7,209z"/>
		</g>
		<g>
			<circle class="st5" cx="686.2" cy="252.5" r="65.2"/>
		</g>
	</g>
	<g>
		<path class="st3" d="M765.1,252.5c0-36,29.2-65.2,65.2-65.2c16.7,0,32,6.3,43.5,16.7c-11.9-13.3-29.3-21.7-48.5-21.7
			c-36,0-65.2,29.2-65.2,65.2c0,19.3,8.4,36.6,21.7,48.5C771.4,284.5,765.1,269.2,765.1,252.5z"/>
		<g>
			<path class="st4" d="M878.9,209c10.4,11.5,16.7,26.8,16.7,43.5c0,36-29.2,65.2-65.2,65.2c-16.7,0-32-6.3-43.5-16.7
				c11.9,13.3,29.3,21.7,48.5,21.7c36,0,65.2-29.2,65.2-65.2C900.5,238.2,892.2,220.9,878.9,209z"/>
		</g>
		<g>
			<circle class="st5" cx="830.3" cy="252.5" r="65.2"/>
		</g>
	</g>
	<g>
		<path class="st3" d="M909.3,252.5c0-36,29.2-65.2,65.2-65.2c16.7,0,32,6.3,43.5,16.7c-11.9-13.3-29.3-21.7-48.5-21.7
			c-36,0-65.2,29.2-65.2,65.2c0,19.3,8.4,36.6,21.7,48.5C915.6,284.5,909.3,269.2,909.3,252.5z"/>
		<g>
			<path class="st4" d="M1023,209c10.4,11.5,16.7,26.8,16.7,43.5c0,36-29.2,65.2-65.2,65.2c-16.7,0-32-6.3-43.5-16.7
				c11.9,13.3,29.3,21.7,48.5,21.7c36,0,65.2-29.2,65.2-65.2C1044.7,238.2,1036.3,220.9,1023,209z"/>
		</g>
		<g>
			
				<ellipse transform="matrix(0.7071 -0.7071 0.7071 0.7071 106.8656 763.0249)" class="st7" cx="974.5" cy="252.5" rx="65.2" ry="65.2"/>
		</g>
	</g>
</g>
<g>
	<g>
		<path class="st3" d="M44.3,396.5c0-36,29.2-65.2,65.2-65.2c16.7,0,32,6.3,43.5,16.7c-11.9-13.3-29.3-21.7-48.5-21.7
			c-36,0-65.2,29.2-65.2,65.2c0,19.3,8.4,36.6,21.7,48.5C50.6,428.5,44.3,413.2,44.3,396.5z"/>
		<g>
			<path class="st4" d="M158,353c10.4,11.5,16.7,26.8,16.7,43.5c0,36-29.2,65.2-65.2,65.2c-16.7,0-32-6.3-43.5-16.7
				c11.9,13.3,29.3,21.7,48.5,21.7c36,0,65.2-29.2,65.2-65.2C179.7,382.2,171.3,364.9,158,353z"/>
		</g>
		<g>
			<circle class="st5" cx="109.5" cy="396.5" r="65.2"/>
		</g>
	</g>
	<g>
		<path class="st3" d="M188.5,396.5c0-36,29.2-65.2,65.2-65.2c16.7,0,32,6.3,43.5,16.7c-11.9-13.3-29.3-21.7-48.5-21.7
			c-36,0-65.2,29.2-65.2,65.2c0,19.3,8.4,36.6,21.7,48.5C194.8,428.5,188.5,413.2,188.5,396.5z"/>
		<g>
			<path class="st4" d="M302.2,353c10.4,11.5,16.7,26.8,16.7,43.5c0,36-29.2,65.2-65.2,65.2c-16.7,0-32-6.3-43.5-16.7
				c11.9,13.3,29.3,21.7,48.5,21.7c36,0,65.2-29.2,65.2-65.2C323.9,382.2,315.5,364.9,302.2,353z"/>
		</g>
		<g>
			<circle class="st5" cx="253.7" cy="396.5" r="65.2"/>
		</g>
	</g>
	<g>
		<path class="st3" d="M332.6,396.5c0-36,29.2-65.2,65.2-65.2c16.7,0,32,6.3,43.5,16.7c-11.9-13.3-29.3-21.7-48.5-21.7
			c-36,0-65.2,29.2-65.2,65.2c0,19.3,8.4,36.6,21.7,48.5C338.9,428.5,332.6,413.2,332.6,396.5z"/>
		<g>
			<path class="st4" d="M446.4,353c10.4,11.5,16.7,26.8,16.7,43.5c0,36-29.2,65.2-65.2,65.2c-16.7,0-32-6.3-43.5-16.7
				c11.9,13.3,29.3,21.7,48.5,21.7c36,0,65.2-29.2,65.2-65.2C468,382.2,459.7,364.9,446.4,353z"/>
		</g>
		<g>
			<circle class="st5" cx="397.8" cy="396.5" r="65.2"/>
		</g>
	</g>
	<g>
		<path class="st3" d="M476.8,396.5c0-36,29.2-65.2,65.2-65.2c16.7,0,32,6.3,43.5,16.7c-11.9-13.3-29.3-21.7-48.5-21.7
			c-36,0-65.2,29.2-65.2,65.2c0,19.3,8.4,36.6,21.7,48.5C483.1,428.5,476.8,413.2,476.8,396.5z"/>
		<g>
			<path class="st4" d="M590.5,353c10.4,11.5,16.7,26.8,16.7,43.5c0,36-29.2,65.2-65.2,65.2c-16.7,0-32-6.3-43.5-16.7
				c11.9,13.3,29.3,21.7,48.5,21.7c36,0,65.2-29.2,65.2-65.2C612.2,382.2,603.8,364.9,590.5,353z"/>
		</g>
		<g>
			<circle class="st5" cx="542" cy="396.5" r="65.2"/>
		</g>
	</g>
	<g>
		<path class="st3" d="M621,396.5c0-36,29.2-65.2,65.2-65.2c16.7,0,32,6.3,43.5,16.7c-11.9-13.3-29.3-21.7-48.5-21.7
			c-36,0-65.2,29.2-65.2,65.2c0,19.3,8.4,36.6,21.7,48.5C627.3,428.5,621,413.2,621,396.5z"/>
		<g>
			<path class="st4" d="M734.7,353c10.4,11.5,16.7,26.8,16.7,43.5c0,36-29.2,65.2-65.2,65.2c-16.7,0-32-6.3-43.5-16.7
				c11.9,13.3,29.3,21.7,48.5,21.7c36,0,65.2-29.2,65.2-65.2C756.4,382.2,748,364.9,734.7,353z"/>
		</g>
		<g>
			<circle class="st5" cx="686.2" cy="396.5" r="65.2"/>
		</g>
	</g>
	<g>
		<path class="st3" d="M765.1,396.5c0-36,29.2-65.2,65.2-65.2c16.7,0,32,6.3,43.5,16.7c-11.9-13.3-29.3-21.7-48.5-21.7
			c-36,0-65.2,29.2-65.2,65.2c0,19.3,8.4,36.6,21.7,48.5C771.4,428.5,765.1,413.2,765.1,396.5z"/>
		<g>
			<path class="st4" d="M878.9,353c10.4,11.5,16.7,26.8,16.7,43.5c0,36-29.2,65.2-65.2,65.2c-16.7,0-32-6.3-43.5-16.7
				c11.9,13.3,29.3,21.7,48.5,21.7c36,0,65.2-29.2,65.2-65.2C900.5,382.2,892.2,364.9,878.9,353z"/>
		</g>
		<g>
			<circle class="st5" cx="830.3" cy="396.5" r="65.2"/>
		</g>
	</g>
	<g>
		<path class="st3" d="M909.3,396.5c0-36,29.2-65.2,65.2-65.2c16.7,0,32,6.3,43.5,16.7c-11.9-13.3-29.3-21.7-48.5-21.7
			c-36,0-65.2,29.2-65.2,65.2c0,19.3,8.4,36.6,21.7,48.5C915.6,428.5,909.3,413.2,909.3,396.5z"/>
		<g>
			<path class="st4" d="M1023,353c10.4,11.5,16.7,26.8,16.7,43.5c0,36-29.2,65.2-65.2,65.2c-16.7,0-32-6.3-43.5-16.7
				c11.9,13.3,29.3,21.7,48.5,21.7c36,0,65.2-29.2,65.2-65.2C1044.7,382.2,1036.3,364.9,1023,353z"/>
		</g>
		<g>
			
				<ellipse transform="matrix(0.7071 -0.7071 0.7071 0.7071 5.0424 805.1992)" class="st7" cx="974.5" cy="396.5" rx="65.2" ry="65.2"/>
		</g>
	</g>
</g>
<g>
	<g>
		<path class="st3" d="M44.3,540.5c0-36,29.2-65.2,65.2-65.2c16.7,0,32,6.3,43.5,16.7c-11.9-13.3-29.3-21.7-48.5-21.7
			c-36,0-65.2,29.2-65.2,65.2c0,19.3,8.4,36.6,21.7,48.5C50.6,572.5,44.3,557.2,44.3,540.5z"/>
		<g>
			<path class="st4" d="M158,497c10.4,11.5,16.7,26.8,16.7,43.5c0,36-29.2,65.2-65.2,65.2c-16.7,0-32-6.3-43.5-16.7
				c11.9,13.3,29.3,21.7,48.5,21.7c36,0,65.2-29.2,65.2-65.2C179.7,526.2,171.3,508.9,158,497z"/>
		</g>
		<g>
			<circle class="st5" cx="109.5" cy="540.5" r="65.2"/>
		</g>
	</g>
	<g>
		<path class="st3" d="M188.5,540.5c0-36,29.2-65.2,65.2-65.2c16.7,0,32,6.3,43.5,16.7c-11.9-13.3-29.3-21.7-48.5-21.7
			c-36,0-65.2,29.2-65.2,65.2c0,19.3,8.4,36.6,21.7,48.5C194.8,572.5,188.5,557.2,188.5,540.5z"/>
		<g>
			<path class="st4" d="M302.2,497c10.4,11.5,16.7,26.8,16.7,43.5c0,36-29.2,65.2-65.2,65.2c-16.7,0-32-6.3-43.5-16.7
				c11.9,13.3,29.3,21.7,48.5,21.7c36,0,65.2-29.2,65.2-65.2C323.9,526.2,315.5,508.9,302.2,497z"/>
		</g>
		<g>
			<circle class="st5" cx="253.7" cy="540.5" r="65.2"/>
		</g>
	</g>
	<g>
		<path class="st3" d="M332.6,540.5c0-36,29.2-65.2,65.2-65.2c16.7,0,32,6.3,43.5,16.7c-11.9-13.3-29.3-21.7-48.5-21.7
			c-36,0-65.2,29.2-65.2,65.2c0,19.3,8.4,36.6,21.7,48.5C338.9,572.5,332.6,557.2,332.6,540.5z"/>
		<g>
			<path class="st4" d="M446.4,497c10.4,11.5,16.7,26.8,16.7,43.5c0,36-29.2,65.2-65.2,65.2c-16.7,0-32-6.3-43.5-16.7
				c11.9,13.3,29.3,21.7,48.5,21.7c36,0,65.2-29.2,65.2-65.2C468,526.2,459.7,508.9,446.4,497z"/>
		</g>
		<g>
			<circle class="st5" cx="397.8" cy="540.5" r="65.2"/>
		</g>
	</g>
	<g>
		<path class="st3" d="M476.8,540.5c0-36,29.2-65.2,65.2-65.2c16.7,0,32,6.3,43.5,16.7c-11.9-13.3-29.3-21.7-48.5-21.7
			c-36,0-65.2,29.2-65.2,65.2c0,19.3,8.4,36.6,21.7,48.5C483.1,572.5,476.8,557.2,476.8,540.5z"/>
		<g>
			<path class="st4" d="M590.5,497c10.4,11.5,16.7,26.8,16.7,43.5c0,36-29.2,65.2-65.2,65.2c-16.7,0-32-6.3-43.5-16.7
				c11.9,13.3,29.3,21.7,48.5,21.7c36,0,65.2-29.2,65.2-65.2C612.2,526.2,603.8,508.9,590.5,497z"/>
		</g>
		<g>
			<circle class="st5" cx="542" cy="540.5" r="65.2"/>
		</g>
	</g>
	<g>
		<path class="st3" d="M621,540.5c0-36,29.2-65.2,65.2-65.2c16.7,0,32,6.3,43.5,16.7c-11.9-13.3-29.3-21.7-48.5-21.7
			c-36,0-65.2,29.2-65.2,65.2c0,19.3,8.4,36.6,21.7,48.5C627.3,572.5,621,557.2,621,540.5z"/>
		<g>
			<path class="st4" d="M734.7,497c10.4,11.5,16.7,26.8,16.7,43.5c0,36-29.2,65.2-65.2,65.2c-16.7,0-32-6.3-43.5-16.7
				c11.9,13.3,29.3,21.7,48.5,21.7c36,0,65.2-29.2,65.2-65.2C756.4,526.2,748,508.9,734.7,497z"/>
		</g>
		<g>
			<circle class="st5" cx="686.2" cy="540.5" r="65.2"/>
		</g>
	</g>
	<g>
		<path class="st3" d="M765.1,540.5c0-36,29.2-65.2,65.2-65.2c16.7,0,32,6.3,43.5,16.7c-11.9-13.3-29.3-21.7-48.5-21.7
			c-36,0-65.2,29.2-65.2,65.2c0,19.3,8.4,36.6,21.7,48.5C771.4,572.5,765.1,557.2,765.1,540.5z"/>
		<g>
			<path class="st4" d="M878.9,497c10.4,11.5,16.7,26.8,16.7,43.5c0,36-29.2,65.2-65.2,65.2c-16.7,0-32-6.3-43.5-16.7
				c11.9,13.3,29.3,21.7,48.5,21.7c36,0,65.2-29.2,65.2-65.2C900.5,526.2,892.2,508.9,878.9,497z"/>
		</g>
		<g>
			<circle class="st5" cx="830.3" cy="540.5" r="65.2"/>
		</g>
	</g>
	<g>
		<path class="st3" d="M909.3,540.5c0-36,29.2-65.2,65.2-65.2c16.7,0,32,6.3,43.5,16.7c-11.9-13.3-29.3-21.7-48.5-21.7
			c-36,0-65.2,29.2-65.2,65.2c0,19.3,8.4,36.6,21.7,48.5C915.6,572.5,909.3,557.2,909.3,540.5z"/>
		<g>
			<path class="st4" d="M1023,497c10.4,11.5,16.7,26.8,16.7,43.5c0,36-29.2,65.2-65.2,65.2c-16.7,0-32-6.3-43.5-16.7
				c11.9,13.3,29.3,21.7,48.5,21.7c36,0,65.2-29.2,65.2-65.2C1044.7,526.2,1036.3,508.9,1023,497z"/>
		</g>
		<g>
			
				<ellipse transform="matrix(0.7071 -0.7071 0.7071 0.7071 -96.6758 847.3445)" class="st7" cx="974.5" cy="540.4" rx="65.2" ry="65.2"/>
		</g>
	</g>
</g>
<g>
	<g>
		<path class="st3" d="M44.3,684.5c0-36,29.2-65.2,65.2-65.2c16.7,0,32,6.3,43.5,16.7c-11.9-13.3-29.3-21.7-48.5-21.7
			c-36,0-65.2,29.2-65.2,65.2c0,19.3,8.4,36.6,21.7,48.5C50.6,716.5,44.3,701.2,44.3,684.5z"/>
		<g>
			<path class="st4" d="M158,641c10.4,11.5,16.7,26.8,16.7,43.5c0,36-29.2,65.2-65.2,65.2c-16.7,0-32-6.3-43.5-16.7
				c11.9,13.3,29.3,21.7,48.5,21.7c36,0,65.2-29.2,65.2-65.2C179.7,670.2,171.3,652.9,158,641z"/>
		</g>
		<g>
			<circle class="st5" cx="109.5" cy="684.5" r="65.2"/>
		</g>
	</g>
	<g>
		<path class="st3" d="M188.5,684.5c0-36,29.2-65.2,65.2-65.2c16.7,0,32,6.3,43.5,16.7c-11.9-13.3-29.3-21.7-48.5-21.7
			c-36,0-65.2,29.2-65.2,65.2c0,19.3,8.4,36.6,21.7,48.5C194.8,716.5,188.5,701.2,188.5,684.5z"/>
		<g>
			<path class="st4" d="M302.2,641c10.4,11.5,16.7,26.8,16.7,43.5c0,36-29.2,65.2-65.2,65.2c-16.7,0-32-6.3-43.5-16.7
				c11.9,13.3,29.3,21.7,48.5,21.7c36,0,65.2-29.2,65.2-65.2C323.9,670.2,315.5,652.9,302.2,641z"/>
		</g>
		<g>
			<circle class="st5" cx="253.7" cy="684.5" r="65.2"/>
		</g>
	</g>
	<g>
		<path class="st3" d="M332.6,684.5c0-36,29.2-65.2,65.2-65.2c16.7,0,32,6.3,43.5,16.7c-11.9-13.3-29.3-21.7-48.5-21.7
			c-36,0-65.2,29.2-65.2,65.2c0,19.3,8.4,36.6,21.7,48.5C338.9,716.5,332.6,701.2,332.6,684.5z"/>
		<g>
			<path class="st4" d="M446.4,641c10.4,11.5,16.7,26.8,16.7,43.5c0,36-29.2,65.2-65.2,65.2c-16.7,0-32-6.3-43.5-16.7
				c11.9,13.3,29.3,21.7,48.5,21.7c36,0,65.2-29.2,65.2-65.2C468,670.2,459.7,652.9,446.4,641z"/>
		</g>
		<g>
			<circle class="st5" cx="397.8" cy="684.5" r="65.2"/>
		</g>
	</g>
	<g>
		<path class="st3" d="M476.8,684.5c0-36,29.2-65.2,65.2-65.2c16.7,0,32,6.3,43.5,16.7c-11.9-13.3-29.3-21.7-48.5-21.7
			c-36,0-65.2,29.2-65.2,65.2c0,19.3,8.4,36.6,21.7,48.5C483.1,716.5,476.8,701.2,476.8,684.5z"/>
		<g>
			<path class="st4" d="M590.5,641c10.4,11.5,16.7,26.8,16.7,43.5c0,36-29.2,65.2-65.2,65.2c-16.7,0-32-6.3-43.5-16.7
				c11.9,13.3,29.3,21.7,48.5,21.7c36,0,65.2-29.2,65.2-65.2C612.2,670.2,603.8,652.9,590.5,641z"/>
		</g>
		<g>
			<circle class="st5" cx="542" cy="684.5" r="65.2"/>
		</g>
	</g>
	<g>
		<path class="st3" d="M621,684.5c0-36,29.2-65.2,65.2-65.2c16.7,0,32,6.3,43.5,16.7c-11.9-13.3-29.3-21.7-48.5-21.7
			c-36,0-65.2,29.2-65.2,65.2c0,19.3,8.4,36.6,21.7,48.5C627.3,716.5,621,701.2,621,684.5z"/>
		<g>
			<path class="st4" d="M734.7,641c10.4,11.5,16.7,26.8,16.7,43.5c0,36-29.2,65.2-65.2,65.2c-16.7,0-32-6.3-43.5-16.7
				c11.9,13.3,29.3,21.7,48.5,21.7c36,0,65.2-29.2,65.2-65.2C756.4,670.2,748,652.9,734.7,641z"/>
		</g>
		<g>
			<circle class="st5" cx="686.2" cy="684.5" r="65.2"/>
		</g>
	</g>
	<g>
		<path class="st3" d="M765.1,684.5c0-36,29.2-65.2,65.2-65.2c16.7,0,32,6.3,43.5,16.7c-11.9-13.3-29.3-21.7-48.5-21.7
			c-36,0-65.2,29.2-65.2,65.2c0,19.3,8.4,36.6,21.7,48.5C771.4,716.5,765.1,701.2,765.1,684.5z"/>
		<g>
			<path class="st4" d="M878.9,641c10.4,11.5,16.7,26.8,16.7,43.5c0,36-29.2,65.2-65.2,65.2c-16.7,0-32-6.3-43.5-16.7
				c11.9,13.3,29.3,21.7,48.5,21.7c36,0,65.2-29.2,65.2-65.2C900.5,670.2,892.2,652.9,878.9,641z"/>
		</g>
		<g>
			<circle class="st5" cx="830.3" cy="684.5" r="65.2"/>
		</g>
	</g>
	<g>
		<path class="st3" d="M909.3,684.5c0-36,29.2-65.2,65.2-65.2c16.7,0,32,6.3,43.5,16.7c-11.9-13.3-29.3-21.7-48.5-21.7
			c-36,0-65.2,29.2-65.2,65.2c0,19.3,8.4,36.6,21.7,48.5C915.6,716.5,909.3,701.2,909.3,684.5z"/>
		<g>
			<path class="st4" d="M1023,641c10.4,11.5,16.7,26.8,16.7,43.5c0,36-29.2,65.2-65.2,65.2c-16.7,0-32-6.3-43.5-16.7
				c11.9,13.3,29.3,21.7,48.5,21.7c36,0,65.2-29.2,65.2-65.2C1044.7,670.2,1036.3,652.9,1023,641z"/>
		</g>
		<g>
			
				<ellipse transform="matrix(0.7071 -0.7071 0.7071 0.7071 -198.4991 889.519)" class="st7" cx="974.5" cy="684.4" rx="65.2" ry="65.2"/>
		</g>
	</g>
</g>
<g>
	<g>
		<path class="st3" d="M44.3,828.5c0-36,29.2-65.2,65.2-65.2c16.7,0,32,6.3,43.5,16.7c-11.9-13.3-29.3-21.7-48.5-21.7
			c-36,0-65.2,29.2-65.2,65.2c0,19.3,8.4,36.6,21.7,48.5C50.6,860.5,44.3,845.2,44.3,828.5z"/>
		<g>
			<path class="st4" d="M158,785c10.4,11.5,16.7,26.8,16.7,43.5c0,36-29.2,65.2-65.2,65.2c-16.7,0-32-6.3-43.5-16.7
				c11.9,13.3,29.3,21.7,48.5,21.7c36,0,65.2-29.2,65.2-65.2C179.7,814.2,171.3,796.9,158,785z"/>
		</g>
		<g>
			<circle class="st5" cx="109.5" cy="828.5" r="65.2"/>
		</g>
	</g>
	<g>
		<path class="st3" d="M188.5,828.5c0-36,29.2-65.2,65.2-65.2c16.7,0,32,6.3,43.5,16.7c-11.9-13.3-29.3-21.7-48.5-21.7
			c-36,0-65.2,29.2-65.2,65.2c0,19.3,8.4,36.6,21.7,48.5C194.8,860.5,188.5,845.2,188.5,828.5z"/>
		<g>
			<path class="st4" d="M302.2,785c10.4,11.5,16.7,26.8,16.7,43.5c0,36-29.2,65.2-65.2,65.2c-16.7,0-32-6.3-43.5-16.7
				c11.9,13.3,29.3,21.7,48.5,21.7c36,0,65.2-29.2,65.2-65.2C323.9,814.2,315.5,796.9,302.2,785z"/>
		</g>
		<g>
			<ellipse class="st8" cx="253.7" cy="828.5" rx="65.2" ry="65.2"/>
		</g>
	</g>
	<g>
		<path class="st3" d="M332.6,828.5c0-36,29.2-65.2,65.2-65.2c16.7,0,32,6.3,43.5,16.7c-11.9-13.3-29.3-21.7-48.5-21.7
			c-36,0-65.2,29.2-65.2,65.2c0,19.3,8.4,36.6,21.7,48.5C338.9,860.5,332.6,845.2,332.6,828.5z"/>
		<g>
			<path class="st4" d="M446.4,785c10.4,11.5,16.7,26.8,16.7,43.5c0,36-29.2,65.2-65.2,65.2c-16.7,0-32-6.3-43.5-16.7
				c11.9,13.3,29.3,21.7,48.5,21.7c36,0,65.2-29.2,65.2-65.2C468,814.2,459.7,796.9,446.4,785z"/>
		</g>
		<g>
			<circle class="st5" cx="397.8" cy="828.5" r="65.2"/>
		</g>
	</g>
	<g>
		<path class="st3" d="M476.8,828.5c0-36,29.2-65.2,65.2-65.2c16.7,0,32,6.3,43.5,16.7c-11.9-13.3-29.3-21.7-48.5-21.7
			c-36,0-65.2,29.2-65.2,65.2c0,19.3,8.4,36.6,21.7,48.5C483.1,860.5,476.8,845.2,476.8,828.5z"/>
		<g>
			<path class="st4" d="M590.5,785c10.4,11.5,16.7,26.8,16.7,43.5c0,36-29.2,65.2-65.2,65.2c-16.7,0-32-6.3-43.5-16.7
				c11.9,13.3,29.3,21.7,48.5,21.7c36,0,65.2-29.2,65.2-65.2C612.2,814.2,603.8,796.9,590.5,785z"/>
		</g>
		<g>
			<circle class="st5" cx="542" cy="828.5" r="65.2"/>
		</g>
	</g>
	<g>
		<path class="st3" d="M621,828.5c0-36,29.2-65.2,65.2-65.2c16.7,0,32,6.3,43.5,16.7c-11.9-13.3-29.3-21.7-48.5-21.7
			c-36,0-65.2,29.2-65.2,65.2c0,19.3,8.4,36.6,21.7,48.5C627.3,860.5,621,845.2,621,828.5z"/>
		<g>
			<path class="st4" d="M734.7,785c10.4,11.5,16.7,26.8,16.7,43.5c0,36-29.2,65.2-65.2,65.2c-16.7,0-32-6.3-43.5-16.7
				c11.9,13.3,29.3,21.7,48.5,21.7c36,0,65.2-29.2,65.2-65.2C756.4,814.2,748,796.9,734.7,785z"/>
		</g>
		<g>
			<circle class="st5" cx="686.2" cy="828.5" r="65.2"/>
		</g>
	</g>
	<g>
		<path class="st3" d="M765.1,828.5c0-36,29.2-65.2,65.2-65.2c16.7,0,32,6.3,43.5,16.7c-11.9-13.3-29.3-21.7-48.5-21.7
			c-36,0-65.2,29.2-65.2,65.2c0,19.3,8.4,36.6,21.7,48.5C771.4,860.5,765.1,845.2,765.1,828.5z"/>
		<g>
			<path class="st4" d="M878.9,785c10.4,11.5,16.7,26.8,16.7,43.5c0,36-29.2,65.2-65.2,65.2c-16.7,0-32-6.3-43.5-16.7
				c11.9,13.3,29.3,21.7,48.5,21.7c36,0,65.2-29.2,65.2-65.2C900.5,814.2,892.2,796.9,878.9,785z"/>
		</g>
		<g>
			<circle class="st5" cx="830.3" cy="828.5" r="65.2"/>
		</g>
	</g>
	<g>
		<path class="st3" d="M909.3,828.5c0-36,29.2-65.2,65.2-65.2c16.7,0,32,6.3,43.5,16.7c-11.9-13.3-29.3-21.7-48.5-21.7
			c-36,0-65.2,29.2-65.2,65.2c0,19.3,8.4,36.6,21.7,48.5C915.6,860.5,909.3,845.2,909.3,828.5z"/>
		<g>
			<path class="st4" d="M1023,785c10.4,11.5,16.7,26.8,16.7,43.5c0,36-29.2,65.2-65.2,65.2c-16.7,0-32-6.3-43.5-16.7
				c11.9,13.3,29.3,21.7,48.5,21.7c36,0,65.2-29.2,65.2-65.2C1044.7,814.2,1036.3,796.9,1023,785z"/>
		</g>
		<g>
			
				<ellipse transform="matrix(0.1602 -0.9871 0.9871 0.1602 0.6004 1657.7057)" class="st9" cx="974.5" cy="828.5" rx="65.2" ry="65.2"/>
		</g>
	</g>
</g>
<line class="st10" x1="5.2" y1="887.6" x2="28.6" y2="887.6"/>
<line class="st10" x1="5.2" y1="877.6" x2="28.6" y2="877.6"/>
<line class="st10" x1="5.2" y1="867.6" x2="28.6" y2="867.6"/>
<line class="st10" x1="5.2" y1="857.6" x2="28.6" y2="857.6"/>
<line class="st10" x1="5.2" y1="847.6" x2="28.6" y2="847.6"/>
<line class="st10" x1="5.2" y1="837.6" x2="28.6" y2="837.6"/>
<line class="st10" x1="5.2" y1="827.6" x2="28.6" y2="827.6"/>
<line class="st10" x1="5.2" y1="817.6" x2="28.6" y2="817.6"/>
<line class="st10" x1="5.2" y1="807.6" x2="28.6" y2="807.6"/>
<line class="st10" x1="5.2" y1="797.6" x2="28.6" y2="797.6"/>
<line class="st10" x1="5.2" y1="787.6" x2="28.6" y2="787.6"/>
<line class="st10" x1="5.2" y1="777.6" x2="28.6" y2="777.6"/>
<line class="st10" x1="5.2" y1="767.6" x2="28.6" y2="767.6"/>
<line class="st10" x1="5.2" y1="757.6" x2="28.6" y2="757.6"/>
<line class="st10" x1="5.2" y1="747.6" x2="28.6" y2="747.6"/>
<line class="st10" x1="5.2" y1="737.6" x2="28.6" y2="737.6"/>
<line class="st10" x1="5.2" y1="727.6" x2="28.6" y2="727.6"/>
<line class="st10" x1="5.2" y1="717.6" x2="28.6" y2="717.6"/>
<line class="st10" x1="5.2" y1="707.6" x2="28.6" y2="707.6"/>
<line class="st10" x1="5.2" y1="697.6" x2="28.6" y2="697.6"/>
<line class="st10" x1="5.2" y1="687.6" x2="28.6" y2="687.6"/>
<line class="st10" x1="5.2" y1="677.6" x2="28.6" y2="677.6"/>
<line class="st10" x1="5.2" y1="667.6" x2="28.6" y2="667.6"/>
<line class="st10" x1="5.2" y1="657.6" x2="28.6" y2="657.6"/>
<line class="st10" x1="5.2" y1="647.6" x2="28.6" y2="647.6"/>
<line class="st10" x1="5.2" y1="637.6" x2="28.6" y2="637.6"/>
<line class="st10" x1="5.2" y1="627.6" x2="28.6" y2="627.6"/>
<line class="st10" x1="5.2" y1="617.6" x2="28.6" y2="617.6"/>
<line class="st10" x1="5.2" y1="607.6" x2="28.6" y2="607.6"/>
<line class="st10" x1="5.2" y1="597.6" x2="28.6" y2="597.6"/>
<line class="st10" x1="5.2" y1="587.6" x2="28.6" y2="587.6"/>
<line class="st10" x1="5.2" y1="577.6" x2="28.6" y2="577.6"/>
<line class="st10" x1="5.2" y1="567.6" x2="28.6" y2="567.6"/>
<line class="st10" x1="5.2" y1="557.6" x2="28.6" y2="557.6"/>
<line class="st10" x1="5.2" y1="547.6" x2="28.6" y2="547.6"/>
<line class="st10" x1="5.2" y1="537.6" x2="28.6" y2="537.6"/>
<line class="st10" x1="5.2" y1="527.6" x2="28.6" y2="527.6"/>
<line class="st10" x1="5.2" y1="517.6" x2="28.6" y2="517.6"/>
<line class="st10" x1="5.2" y1="507.6" x2="28.6" y2="507.6"/>
<line class="st10" x1="5.2" y1="497.6" x2="28.6" y2="497.6"/>
<line class="st10" x1="5.2" y1="487.6" x2="28.6" y2="487.6"/>
<line class="st10" x1="5.2" y1="477.6" x2="28.6" y2="477.6"/>
<line class="st10" x1="5.2" y1="467.6" x2="28.6" y2="467.6"/>
<line class="st10" x1="5.2" y1="457.6" x2="28.6" y2="457.6"/>
<line class="st10" x1="5.2" y1="447.6" x2="28.6" y2="447.6"/>
<line class="st10" x1="5.2" y1="437.6" x2="28.6" y2="437.6"/>
<line class="st10" x1="5.2" y1="427.6" x2="28.6" y2="427.6"/>
<line class="st10" x1="5.2" y1="417.6" x2="28.6" y2="417.6"/>
<line class="st10" x1="5.2" y1="407.6" x2="28.6" y2="407.6"/>
<line class="st10" x1="5.2" y1="397.6" x2="28.6" y2="397.6"/>
<line class="st10" x1="5.2" y1="387.6" x2="28.6" y2="387.6"/>
<line class="st10" x1="5.2" y1="377.6" x2="28.6" y2="377.6"/>
<line class="st10" x1="5.2" y1="367.6" x2="28.6" y2="367.6"/>
<line class="st10" x1="5.2" y1="357.6" x2="28.6" y2="357.6"/>
<line class="st10" x1="5.2" y1="347.6" x2="28.6" y2="347.6"/>
<line class="st10" x1="5.2" y1="337.6" x2="28.6" y2="337.6"/>
<line class="st10" x1="5.2" y1="327.6" x2="28.6" y2="327.6"/>
<line class="st10" x1="5.2" y1="317.6" x2="28.6" y2="317.6"/>
<line class="st10" x1="5.2" y1="307.6" x2="28.6" y2="307.6"/>
<line class="st10" x1="5.2" y1="297.6" x2="28.6" y2="297.6"/>
<line class="st10" x1="5.2" y1="287.6" x2="28.6" y2="287.6"/>
<line class="st10" x1="5.2" y1="277.6" x2="28.6" y2="277.6"/>
<line class="st10" x1="5.2" y1="267.6" x2="28.6" y2="267.6"/>
<line class="st10" x1="5.2" y1="257.6" x2="28.6" y2="257.6"/>
<line class="st10" x1="5.2" y1="247.6" x2="28.6" y2="247.6"/>
<line class="st10" x1="5.2" y1="237.6" x2="28.6" y2="237.6"/>
<line class="st10" x1="5.2" y1="227.6" x2="28.6" y2="227.6"/>
<line class="st10" x1="5.2" y1="217.6" x2="28.6" y2="217.6"/>
<line class="st10" x1="5.2" y1="207.6" x2="28.6" y2="207.6"/>
<line class="st10" x1="5.2" y1="197.6" x2="28.6" y2="197.6"/>
<line class="st10" x1="5.2" y1="187.6" x2="28.6" y2="187.6"/>
<line class="st10" x1="5.2" y1="177.6" x2="28.6" y2="177.6"/>
<line class="st10" x1="5.2" y1="167.6" x2="28.6" y2="167.6"/>
<line class="st10" x1="5.2" y1="157.6" x2="28.6" y2="157.6"/>
<line class="st10" x1="5.2" y1="147.6" x2="28.6" y2="147.6"/>
<line class="st10" x1="5.2" y1="137.6" x2="28.6" y2="137.6"/>
<line class="st10" x1="5.2" y1="127.6" x2="28.6" y2="127.6"/>
<line class="st10" x1="5.2" y1="117.6" x2="28.6" y2="117.6"/>
<line class="st10" x1="5.2" y1="107.6" x2="28.6" y2="107.6"/>
<line class="st10" x1="5.2" y1="97.6" x2="28.6" y2="97.6"/>
<line class="st10" x1="5.2" y1="87.6" x2="28.6" y2="87.6"/>
<line class="st10" x1="5.2" y1="77.6" x2="28.6" y2="77.6"/>
<line class="st10" x1="5.2" y1="67.6" x2="28.6" y2="67.6"/>
<line class="st10" x1="5.2" y1="57.6" x2="28.6" y2="57.6"/>
<line class="st10" x1="5.2" y1="47.6" x2="28.6" y2="47.6"/>
<line class="st10" x1="5.2" y1="37.6" x2="28.6" y2="37.6"/>
<line class="st10" x1="1059.7" y1="887.6" x2="1083.1" y2="887.6"/>
<line class="st10" x1="1059.7" y1="877.6" x2="1083.1" y2="877.6"/>
<line class="st10" x1="1059.7" y1="867.6" x2="1083.1" y2="867.6"/>
<line class="st10" x1="1059.7" y1="857.6" x2="1083.1" y2="857.6"/>
<line class="st10" x1="1059.7" y1="847.6" x2="1083.1" y2="847.6"/>
<line class="st10" x1="1059.7" y1="837.6" x2="1083.1" y2="837.6"/>
<line class="st10" x1="1059.7" y1="827.6" x2="1083.1" y2="827.6"/>
<line class="st10" x1="1059.7" y1="817.6" x2="1083.1" y2="817.6"/>
<line class="st10" x1="1059.7" y1="807.6" x2="1083.1" y2="807.6"/>
<line class="st10" x1="1059.7" y1="797.6" x2="1083.1" y2="797.6"/>
<line class="st10" x1="1059.7" y1="787.6" x2="1083.1" y2="787.6"/>
<line class="st10" x1="1059.7" y1="777.6" x2="1083.1" y2="777.6"/>
<line class="st10" x1="1059.7" y1="767.6" x2="1083.1" y2="767.6"/>
<line class="st10" x1="1059.7" y1="757.6" x2="1083.1" y2="757.6"/>
<line class="st10" x1="1059.7" y1="747.6" x2="1083.1" y2="747.6"/>
<line class="st10" x1="1059.7" y1="737.6" x2="1083.1" y2="737.6"/>
<line class="st10" x1="1059.7" y1="727.6" x2="1083.1" y2="727.6"/>
<line class="st10" x1="1059.7" y1="717.6" x2="1083.1" y2="717.6"/>
<line class="st10" x1="1059.7" y1="707.6" x2="1083.1" y2="707.6"/>
<line class="st10" x1="1059.7" y1="697.6" x2="1083.1" y2="697.6"/>
<line class="st10" x1="1059.7" y1="687.6" x2="1083.1" y2="687.6"/>
<line class="st10" x1="1059.7" y1="677.6" x2="1083.1" y2="677.6"/>
<line class="st10" x1="1059.7" y1="667.6" x2="1083.1" y2="667.6"/>
<line class="st10" x1="1059.7" y1="657.6" x2="1083.1" y2="657.6"/>
<line class="st10" x1="1059.7" y1="647.6" x2="1083.1" y2="647.6"/>
<line class="st10" x1="1059.7" y1="637.6" x2="1083.1" y2="637.6"/>
<line class="st10" x1="1059.7" y1="627.6" x2="1083.1" y2="627.6"/>
<line class="st10" x1="1059.7" y1="617.6" x2="1083.1" y2="617.6"/>
<line class="st10" x1="1059.7" y1="607.6" x2="1083.1" y2="607.6"/>
<line class="st10" x1="1059.7" y1="597.6" x2="1083.1" y2="597.6"/>
<line class="st10" x1="1059.7" y1="587.6" x2="1083.1" y2="587.6"/>
<line class="st10" x1="1059.7" y1="577.6" x2="1083.1" y2="577.6"/>
<line class="st10" x1="1059.7" y1="567.6" x2="1083.1" y2="567.6"/>
<line class="st10" x1="1059.7" y1="557.6" x2="1083.1" y2="557.6"/>
<line class="st10" x1="1059.7" y1="547.6" x2="1083.1" y2="547.6"/>
<line class="st10" x1="1059.7" y1="537.6" x2="1083.1" y2="537.6"/>
<line class="st10" x1="1059.7" y1="527.6" x2="1083.1" y2="527.6"/>
<line class="st10" x1="1059.7" y1="517.6" x2="1083.1" y2="517.6"/>
<line class="st10" x1="1059.7" y1="507.6" x2="1083.1" y2="507.6"/>
<line class="st10" x1="1059.7" y1="497.6" x2="1083.1" y2="497.6"/>
<line class="st10" x1="1059.7" y1="487.6" x2="1083.1" y2="487.6"/>
<line class="st10" x1="1059.7" y1="477.6" x2="1083.1" y2="477.6"/>
<line class="st10" x1="1059.7" y1="467.6" x2="1083.1" y2="467.6"/>
<line class="st10" x1="1059.7" y1="457.6" x2="1083.1" y2="457.6"/>
<line class="st10" x1="1059.7" y1="447.6" x2="1083.1" y2="447.6"/>
<line class="st10" x1="1059.7" y1="437.6" x2="1083.1" y2="437.6"/>
<line class="st10" x1="1059.7" y1="427.6" x2="1083.1" y2="427.6"/>
<line class="st10" x1="1059.7" y1="417.6" x2="1083.1" y2="417.6"/>
<line class="st10" x1="1059.7" y1="407.6" x2="1083.1" y2="407.6"/>
<line class="st10" x1="1059.7" y1="397.6" x2="1083.1" y2="397.6"/>
<line class="st10" x1="1059.7" y1="387.6" x2="1083.1" y2="387.6"/>
<line class="st10" x1="1059.7" y1="377.6" x2="1083.1" y2="377.6"/>
<line class="st10" x1="1059.7" y1="367.6" x2="1083.1" y2="367.6"/>
<line class="st10" x1="1059.7" y1="357.6" x2="1083.1" y2="357.6"/>
<line class="st10" x1="1059.7" y1="347.6" x2="1083.1" y2="347.6"/>
<line class="st10" x1="1059.7" y1="337.6" x2="1083.1" y2="337.6"/>
<line class="st10" x1="1059.7" y1="327.6" x2="1083.1" y2="327.6"/>
<line class="st10" x1="1059.7" y1="317.6" x2="1083.1" y2="317.6"/>
<line class="st10" x1="1059.7" y1="307.6" x2="1083.1" y2="307.6"/>
<line class="st10" x1="1059.7" y1="297.6" x2="1083.1" y2="297.6"/>
<line class="st10" x1="1059.7" y1="287.6" x2="1083.1" y2="287.6"/>
<line class="st10" x1="1059.7" y1="277.6" x2="1083.1" y2="277.6"/>
<line class="st10" x1="1059.7" y1="267.6" x2="1083.1" y2="267.6"/>
<line class="st10" x1="1059.7" y1="257.6" x2="1083.1" y2="257.6"/>
<line class="st10" x1="1059.7" y1="247.6" x2="1083.1" y2="247.6"/>
<line class="st10" x1="1059.7" y1="237.6" x2="1083.1" y2="237.6"/>
<line class="st10" x1="1059.7" y1="227.6" x2="1083.1" y2="227.6"/>
<line class="st10" x1="1059.7" y1="217.6" x2="1083.1" y2="217.6"/>
<line class="st10" x1="1059.7" y1="207.6" x2="1083.1" y2="207.6"/>
<line class="st10" x1="1059.7" y1="197.6" x2="1083.1" y2="197.6"/>
<line class="st10" x1="1059.7" y1="187.6" x2="1083.1" y2="187.6"/>
<line class="st10" x1="1059.7" y1="177.6" x2="1083.1" y2="177.6"/>
<line class="st10" x1="1059.7" y1="167.6" x2="1083.1" y2="167.6"/>
<line class="st10" x1="1059.7" y1="157.6" x2="1083.1" y2="157.6"/>
<line class="st10" x1="1059.7" y1="147.6" x2="1083.1" y2="147.6"/>
<line class="st10" x1="1059.7" y1="137.6" x2="1083.1" y2="137.6"/>
<line class="st10" x1="1059.7" y1="127.6" x2="1083.1" y2="127.6"/>
<line class="st10" x1="1059.7" y1="117.6" x2="1083.1" y2="117.6"/>
<line class="st10" x1="1059.7" y1="107.6" x2="1083.1" y2="107.6"/>
<line class="st10" x1="1059.7" y1="97.6" x2="1083.1" y2="97.6"/>
<line class="st10" x1="1059.7" y1="87.6" x2="1083.1" y2="87.6"/>
<line class="st10" x1="1059.7" y1="77.6" x2="1083.1" y2="77.6"/>
<line class="st10" x1="1059.7" y1="67.6" x2="1083.1" y2="67.6"/>
<line class="st10" x1="1059.7" y1="57.6" x2="1083.1" y2="57.6"/>
<line class="st10" x1="1059.7" y1="47.6" x2="1083.1" y2="47.6"/>
<line class="st10" x1="1059.7" y1="37.6" x2="1083.1" y2="37.6"/>
<line class="st10" x1="203.2" y1="3.4" x2="203.2" y2="26.8"/>
<line class="st10" x1="213.2" y1="3.4" x2="213.2" y2="26.8"/>
<line class="st10" x1="223.2" y1="3.4" x2="223.2" y2="26.8"/>
<line class="st10" x1="233.2" y1="3.4" x2="233.2" y2="26.8"/>
<line class="st10" x1="243.2" y1="3.4" x2="243.2" y2="26.8"/>
<line class="st10" x1="253.2" y1="3.4" x2="253.2" y2="26.8"/>
<line class="st10" x1="263.2" y1="3.4" x2="263.2" y2="26.8"/>
<line class="st10" x1="273.2" y1="3.4" x2="273.2" y2="26.8"/>
<line class="st10" x1="283.2" y1="3.4" x2="283.2" y2="26.8"/>
<line class="st10" x1="293.2" y1="3.4" x2="293.2" y2="26.8"/>
<line class="st10" x1="303.2" y1="3.4" x2="303.2" y2="26.8"/>
<line class="st10" x1="313.2" y1="3.4" x2="313.2" y2="26.8"/>
<line class="st10" x1="323.2" y1="3.4" x2="323.2" y2="26.8"/>
<line class="st10" x1="333.2" y1="3.4" x2="333.2" y2="26.8"/>
<line class="st10" x1="343.2" y1="3.4" x2="343.2" y2="26.8"/>
<line class="st10" x1="353.2" y1="3.4" x2="353.2" y2="26.8"/>
<line class="st10" x1="363.2" y1="3.4" x2="363.2" y2="26.8"/>
<line class="st10" x1="33.3" y1="3.4" x2="33.3" y2="26.8"/>
<line class="st10" x1="43.3" y1="3.4" x2="43.3" y2="26.8"/>
<line class="st10" x1="53.3" y1="3.4" x2="53.3" y2="26.8"/>
<line class="st10" x1="63.3" y1="3.4" x2="63.3" y2="26.8"/>
<line class="st10" x1="73.3" y1="3.4" x2="73.3" y2="26.8"/>
<line class="st10" x1="83.3" y1="3.4" x2="83.3" y2="26.8"/>
<line class="st10" x1="93.3" y1="3.4" x2="93.3" y2="26.8"/>
<line class="st10" x1="103.3" y1="3.4" x2="103.3" y2="26.8"/>
<line class="st10" x1="113.3" y1="3.4" x2="113.3" y2="26.8"/>
<line class="st10" x1="123.3" y1="3.4" x2="123.3" y2="26.8"/>
<line class="st10" x1="133.3" y1="3.4" x2="133.3" y2="26.8"/>
<line class="st10" x1="143.3" y1="3.4" x2="143.3" y2="26.8"/>
<line class="st10" x1="153.3" y1="3.4" x2="153.3" y2="26.8"/>
<line class="st10" x1="163.3" y1="3.4" x2="163.3" y2="26.8"/>
<line class="st10" x1="173.3" y1="3.4" x2="173.3" y2="26.8"/>
<line class="st10" x1="183.3" y1="3.4" x2="183.3" y2="26.8"/>
<line class="st10" x1="193.3" y1="3.4" x2="193.3" y2="26.8"/>
<line class="st10" x1="373.2" y1="3.4" x2="373.2" y2="26.8"/>
<line class="st10" x1="383.2" y1="3.4" x2="383.2" y2="26.8"/>
<line class="st10" x1="393.2" y1="3.4" x2="393.2" y2="26.8"/>
<line class="st10" x1="403.2" y1="3.4" x2="403.2" y2="26.8"/>
<line class="st10" x1="413.2" y1="3.4" x2="413.2" y2="26.8"/>
<line class="st10" x1="423.2" y1="3.4" x2="423.2" y2="26.8"/>
<line class="st10" x1="433.2" y1="3.4" x2="433.2" y2="26.8"/>
<line class="st10" x1="443.2" y1="3.4" x2="443.2" y2="26.8"/>
<line class="st10" x1="453.2" y1="3.4" x2="453.2" y2="26.8"/>
<line class="st10" x1="463.2" y1="3.4" x2="463.2" y2="26.8"/>
<line class="st10" x1="473.2" y1="3.4" x2="473.2" y2="26.8"/>
<line class="st10" x1="483.2" y1="3.4" x2="483.2" y2="26.8"/>
<line class="st10" x1="493.2" y1="3.4" x2="493.2" y2="26.8"/>
<line class="st10" x1="503.2" y1="3.4" x2="503.2" y2="26.8"/>
<line class="st10" x1="513.2" y1="3.4" x2="513.2" y2="26.8"/>
<line class="st10" x1="523.2" y1="3.4" x2="523.2" y2="26.8"/>
<line class="st10" x1="533.2" y1="3.4" x2="533.2" y2="26.8"/>
<line class="st10" x1="543.2" y1="3.4" x2="543.2" y2="26.8"/>
<line class="st10" x1="553.2" y1="3.4" x2="553.2" y2="26.8"/>
<line class="st10" x1="563.2" y1="3.4" x2="563.2" y2="26.8"/>
<line class="st10" x1="573.2" y1="3.4" x2="573.2" y2="26.8"/>
<line class="st10" x1="583.2" y1="3.4" x2="583.2" y2="26.8"/>
<line class="st10" x1="593.2" y1="3.4" x2="593.2" y2="26.8"/>
<line class="st10" x1="603.2" y1="3.4" x2="603.2" y2="26.8"/>
<line class="st10" x1="613.2" y1="3.4" x2="613.2" y2="26.8"/>
<line class="st10" x1="623.2" y1="3.4" x2="623.2" y2="26.8"/>
<line class="st10" x1="633.2" y1="3.4" x2="633.2" y2="26.8"/>
<line class="st10" x1="643.2" y1="3.4" x2="643.2" y2="26.8"/>
<line class="st10" x1="653.2" y1="3.4" x2="653.2" y2="26.8"/>
<line class="st10" x1="663.2" y1="3.4" x2="663.2" y2="26.8"/>
<line class="st10" x1="673.2" y1="3.4" x2="673.2" y2="26.8"/>
<line class="st10" x1="683.2" y1="3.4" x2="683.2" y2="26.8"/>
<line class="st10" x1="693.2" y1="3.4" x2="693.2" y2="26.8"/>
<line class="st10" x1="703.2" y1="3.4" x2="703.2" y2="26.8"/>
<line class="st10" x1="713.2" y1="3.4" x2="713.2" y2="26.8"/>
<line class="st10" x1="723.2" y1="3.4" x2="723.2" y2="26.8"/>
<line class="st10" x1="733.2" y1="3.4" x2="733.2" y2="26.8"/>
<line class="st10" x1="743.2" y1="3.4" x2="743.2" y2="26.8"/>
<line class="st10" x1="753.2" y1="3.4" x2="753.2" y2="26.8"/>
<line class="st10" x1="763.2" y1="3.4" x2="763.2" y2="26.8"/>
<line class="st10" x1="773.2" y1="3.4" x2="773.2" y2="26.8"/>
<line class="st10" x1="783.2" y1="3.4" x2="783.2" y2="26.8"/>
<line class="st10" x1="793.2" y1="3.4" x2="793.2" y2="26.8"/>
<line class="st10" x1="803.2" y1="3.4" x2="803.2" y2="26.8"/>
<line class="st10" x1="813.2" y1="3.4" x2="813.2" y2="26.8"/>
<line class="st10" x1="823.2" y1="3.4" x2="823.2" y2="26.8"/>
<line class="st10" x1="833.2" y1="3.4" x2="833.2" y2="26.8"/>
<line class="st10" x1="843.2" y1="3.4" x2="843.2" y2="26.8"/>
<line class="st10" x1="853.2" y1="3.4" x2="853.2" y2="26.8"/>
<line class="st10" x1="863.2" y1="3.4" x2="863.2" y2="26.8"/>
<line class="st10" x1="873.2" y1="3.4" x2="873.2" y2="26.8"/>
<line class="st10" x1="883.2" y1="3.4" x2="883.2" y2="26.8"/>
<line class="st10" x1="893.2" y1="3.4" x2="893.2" y2="26.8"/>
<line class="st10" x1="903.2" y1="3.4" x2="903.2" y2="26.8"/>
<line class="st10" x1="913.2" y1="3.4" x2="913.2" y2="26.8"/>
<line class="st10" x1="923.2" y1="3.4" x2="923.2" y2="26.8"/>
<line class="st10" x1="933.2" y1="3.4" x2="933.2" y2="26.8"/>
<line class="st10" x1="943.2" y1="3.4" x2="943.2" y2="26.8"/>
<line class="st10" x1="953.2" y1="3.4" x2="953.2" y2="26.8"/>
<line class="st10" x1="963.2" y1="3.4" x2="963.2" y2="26.8"/>
<line class="st10" x1="973.2" y1="3.4" x2="973.2" y2="26.8"/>
<line class="st10" x1="983.2" y1="3.4" x2="983.2" y2="26.8"/>
<line class="st10" x1="993.2" y1="3.4" x2="993.2" y2="26.8"/>
<line class="st10" x1="1003.2" y1="3.4" x2="1003.2" y2="26.8"/>
<line class="st10" x1="1013.2" y1="3.4" x2="1013.2" y2="26.8"/>
<line class="st10" x1="1023.2" y1="3.4" x2="1023.2" y2="26.8"/>
<line class="st10" x1="1033.2" y1="3.4" x2="1033.2" y2="26.8"/>
<line class="st10" x1="1043.2" y1="3.4" x2="1043.2" y2="26.8"/>
<line class="st10" x1="1053.2" y1="3.4" x2="1053.2" y2="26.8"/>
</svg>
